<?xml version="1.0" encoding="UTF-8" standalone="no"?>
<!DOCTYPE svg PUBLIC "-//W3C//DTD SVG 1.1//EN"
 "http://www.w3.org/Graphics/SVG/1.1/DTD/svg11.dtd">
<!-- Generated by graphviz version 2.38.0 (20140413.2041)
 -->
<!-- Title: models_diagram Pages: 1 -->
<svg width="2240pt" height="485pt"
 viewBox="0.00 0.00 2239.60 485.00" xmlns="http://www.w3.org/2000/svg" xmlns:xlink="http://www.w3.org/1999/xlink">
<g id="graph0" class="graph" transform="scale(1 1) rotate(0) translate(4 481)">
<title>models_diagram</title>
<polygon fill="none" stroke="none" points="-4,4 -4,-481 2235.6,-481 2235.6,4 -4,4"/>
<!-- _diagram_info -->
<g id="node1" class="node"><title>_diagram_info</title>
<text text-anchor="start" x="526.446" y="-462.6" font-family="Times,serif" font-size="13.00">Models diagram</text>
<text text-anchor="start" x="526.446" y="-449.6" font-family="Times,serif" font-size="13.00">Date: Jan 21 2016 &#45; 21:35</text>
<text text-anchor="start" x="526.446" y="-436.6" font-family="Times,serif" font-size="13.00">Migration version: 104</text>
<text text-anchor="start" x="526.446" y="-423.6" font-family="Times,serif" font-size="13.00">Generated by RailRoady 1.4.2</text>
<text text-anchor="start" x="526.446" y="-410.6" font-family="Times,serif" font-size="13.00">http://railroady.prestonlee.com</text>
</g>
<!-- Article::States -->
<g id="node2" class="node"><title>Article::States</title>
<polygon fill="none" stroke="black" stroke-dasharray="1,5" points="808.256,-458.5 712.076,-458.5 712.076,-422.5 808.256,-422.5 808.256,-458.5"/>
<text text-anchor="middle" x="760.166" y="-436.3" font-family="Times,serif" font-size="14.00">Article::States</text>
</g>
<!-- Article -->
<g id="node3" class="node"><title>Article</title>
<ellipse fill="none" stroke="black" cx="861.166" cy="-440.5" rx="34.8198" ry="18"/>
<text text-anchor="middle" x="861.166" y="-436.3" font-family="Times,serif" font-size="14.00">Article</text>
</g>
<!-- Categorization -->
<g id="node6" class="node"><title>Categorization</title>
<ellipse fill="none" stroke="black" cx="62.1658" cy="-250" rx="62.3321" ry="18"/>
<text text-anchor="middle" x="62.1658" y="-245.8" font-family="Times,serif" font-size="14.00">Categorization</text>
</g>
<!-- Article&#45;&gt;Categorization -->
<g id="edge10" class="edge"><title>Article&#45;&gt;Categorization</title>
<path fill="none" stroke="#731b76" d="M840.872,-418.573C833.948,-412.76 825.766,-407.176 817.166,-404 751.473,-379.743 256.504,-395.811 187.166,-386 130.81,-378.026 98.2408,-398.825 63.1658,-354 46.517,-332.723 49.17,-300.688 54.1415,-278.002"/>
<ellipse fill="none" stroke="#731b76" cx="843.869" cy="-421.248" rx="4.00002" ry="4.00002"/>
<polygon fill="#731b76" stroke="#731b76" points="54.2123,-277.716 60.9793,-269.087 55.4115,-272.861 56.6106,-268.007 56.6106,-268.007 56.6106,-268.007 55.4115,-272.861 52.2419,-266.928 54.2123,-277.716 54.2123,-277.716"/>
</g>
<!-- Category -->
<g id="node7" class="node"><title>Category</title>
<ellipse fill="none" stroke="black" cx="115.166" cy="-336" rx="42.5456" ry="18"/>
<text text-anchor="middle" x="115.166" y="-331.8" font-family="Times,serif" font-size="14.00">Category</text>
</g>
<!-- Article&#45;&gt;Category -->
<g id="edge11" class="edge"><title>Article&#45;&gt;Category</title>
<path fill="none" stroke="#221969" d="M839.147,-417.167C832.605,-411.877 825.061,-406.926 817.166,-404 756.5,-381.518 298.452,-399.442 235.166,-386 205.179,-379.631 173.125,-366.164 149.696,-354.958"/>
<polygon fill="#221969" stroke="#221969" points="839.332,-417.329 843.882,-427.306 843.09,-420.626 846.849,-423.923 846.849,-423.923 846.849,-423.923 843.09,-420.626 849.817,-420.54 839.332,-417.329 839.332,-417.329"/>
<polygon fill="#221969" stroke="#221969" points="149.515,-354.87 142.507,-346.436 145.023,-352.674 140.531,-350.479 140.531,-350.479 140.531,-350.479 145.023,-352.674 138.555,-354.522 149.515,-354.87 149.515,-354.87"/>
</g>
<!-- Comment -->
<g id="node8" class="node"><title>Comment</title>
<ellipse fill="none" stroke="black" cx="444.166" cy="-336" rx="44.9768" ry="18"/>
<text text-anchor="middle" x="444.166" y="-331.8" font-family="Times,serif" font-size="14.00">Comment</text>
</g>
<!-- Article&#45;&gt;Comment -->
<g id="edge12" class="edge"><title>Article&#45;&gt;Comment</title>
<path fill="none" stroke="#0bc575" d="M840.815,-418.724C833.888,-412.919 825.719,-407.301 817.166,-404 687.999,-354.146 635.582,-435.203 506.166,-386 491.512,-380.429 477.588,-370.069 466.661,-360.305"/>
<ellipse fill="none" stroke="#0bc575" cx="843.813" cy="-421.389" rx="4.00002" ry="4.00002"/>
<polygon fill="#0bc575" stroke="#0bc575" points="466.564,-360.215 462.343,-350.094 462.916,-356.796 459.267,-353.378 459.267,-353.378 459.267,-353.378 462.916,-356.796 456.19,-356.662 466.564,-360.215 466.564,-360.215"/>
</g>
<!-- Article&#45;&gt;Comment -->
<g id="edge13" class="edge"><title>Article&#45;&gt;Comment</title>
<path fill="none" stroke="#112b26" d="M840.852,-418.628C833.926,-412.819 825.749,-407.222 817.166,-404 769.487,-386.104 394.476,-422.711 359.179,-386 354.867,-381.515 355.717,-377.17 359.179,-372 364.199,-364.505 381.361,-356.803 398.962,-350.539"/>
<ellipse fill="none" stroke="#112b26" cx="843.849" cy="-421.3" rx="4.00002" ry="4.00002"/>
<polygon fill="#112b26" stroke="#112b26" points="399.246,-350.443 410.163,-351.478 403.978,-348.83 408.711,-347.218 408.711,-347.218 408.711,-347.218 403.978,-348.83 407.26,-342.958 399.246,-350.443 399.246,-350.443"/>
<text text-anchor="middle" x="419.659" y="-374.8" font-family="Times,serif" font-size="14.00">published_comments</text>
</g>
<!-- Feedback -->
<g id="node13" class="node"><title>Feedback</title>
<ellipse fill="none" stroke="black" cx="734.166" cy="-336" rx="43.9819" ry="18"/>
<text text-anchor="middle" x="734.166" y="-331.8" font-family="Times,serif" font-size="14.00">Feedback</text>
</g>
<!-- Article&#45;&gt;Feedback -->
<g id="edge8" class="edge"><title>Article&#45;&gt;Feedback</title>
<path fill="none" stroke="#6c7e26" d="M861.881,-414.1C860.941,-400.09 857.429,-383.297 847.166,-372 831.906,-355.203 808.766,-346.385 787.392,-341.788"/>
<ellipse fill="none" stroke="#6c7e26" cx="862.032" cy="-418.391" rx="4" ry="4"/>
<polygon fill="#6c7e26" stroke="#6c7e26" points="787.235,-341.759 778.242,-335.485 782.322,-340.833 777.408,-339.907 777.408,-339.907 777.408,-339.907 782.322,-340.833 776.575,-344.329 787.235,-341.759 787.235,-341.759"/>
</g>
<!-- Article&#45;&gt;Feedback -->
<g id="edge15" class="edge"><title>Article&#45;&gt;Feedback</title>
<path fill="none" stroke="#699b43" d="M839.386,-418.573C832.696,-413.112 825.015,-407.721 817.166,-404 781.895,-387.281 755.817,-416.297 731.207,-386 726.275,-379.929 725.26,-371.912 725.987,-364.126"/>
<ellipse fill="none" stroke="#699b43" cx="842.679" cy="-421.396" rx="4.00002" ry="4.00002"/>
<polygon fill="#699b43" stroke="#699b43" points="726.001,-364.049 732.193,-354.999 726.882,-359.128 727.763,-354.206 727.763,-354.206 727.763,-354.206 726.882,-359.128 723.334,-353.413 726.001,-364.049 726.001,-364.049"/>
<text text-anchor="middle" x="788.145" y="-374.8" font-family="Times,serif" font-size="14.00">published_feedback</text>
</g>
<!-- Notification -->
<g id="node14" class="node"><title>Notification</title>
<ellipse fill="none" stroke="black" cx="487.166" cy="-91" rx="52.2106" ry="18"/>
<text text-anchor="middle" x="487.166" y="-86.8" font-family="Times,serif" font-size="14.00">Notification</text>
</g>
<!-- Article&#45;&gt;Notification -->
<g id="edge1" class="edge"><title>Article&#45;&gt;Notification</title>
<path fill="none" stroke="#ae2a98" d="M840.856,-418.615C833.932,-412.805 825.753,-407.211 817.166,-404 766.24,-384.957 373.882,-415.43 328.166,-386 225.997,-320.228 365.393,-186.562 402.166,-146 415.025,-131.816 432.436,-119.886 448.152,-110.876"/>
<ellipse fill="none" stroke="#ae2a98" cx="843.854" cy="-421.288" rx="4.00002" ry="4.00002"/>
<polygon fill="#ae2a98" stroke="#ae2a98" points="448.403,-110.738 459.333,-109.856 452.782,-108.326 457.162,-105.915 457.162,-105.915 457.162,-105.915 452.782,-108.326 454.992,-101.973 448.403,-110.738 448.403,-110.738"/>
</g>
<!-- Ping -->
<g id="node18" class="node"><title>Ping</title>
<ellipse fill="none" stroke="black" cx="1288.17" cy="-336" rx="27" ry="18"/>
<text text-anchor="middle" x="1288.17" y="-331.8" font-family="Times,serif" font-size="14.00">Ping</text>
</g>
<!-- Article&#45;&gt;Ping -->
<g id="edge6" class="edge"><title>Article&#45;&gt;Ping</title>
<path fill="none" stroke="#bce661" d="M881.506,-418.697C888.433,-412.891 896.604,-407.279 905.166,-404 976.238,-376.782 1179.08,-420.013 1247.17,-386 1257.95,-380.611 1266.97,-370.961 1273.78,-361.642"/>
<ellipse fill="none" stroke="#bce661" cx="878.509" cy="-421.364" rx="4.00002" ry="4.00002"/>
<polygon fill="#bce661" stroke="#bce661" points="1273.81,-361.601 1283.13,-355.824 1276.6,-357.455 1279.4,-353.309 1279.4,-353.309 1279.4,-353.309 1276.6,-357.455 1275.67,-350.794 1273.81,-361.601 1273.81,-361.601"/>
</g>
<!-- Redirect -->
<g id="node21" class="node"><title>Redirect</title>
<ellipse fill="none" stroke="black" cx="868.166" cy="-91" rx="40.123" ry="18"/>
<text text-anchor="middle" x="868.166" y="-86.8" font-family="Times,serif" font-size="14.00">Redirect</text>
</g>
<!-- Article&#45;&gt;Redirect -->
<g id="edge4" class="edge"><title>Article&#45;&gt;Redirect</title>
<path fill="none" stroke="#d676e9" d="M874.759,-413.693C888.336,-386.342 908.288,-341.456 916.166,-300 922.772,-265.232 892.806,-166.573 877.159,-118.704"/>
<polygon fill="#d676e9" stroke="#d676e9" points="874.595,-414.016 866.064,-420.906 872.337,-418.477 870.079,-422.938 870.079,-422.938 870.079,-422.938 872.337,-418.477 874.094,-424.971 874.595,-414.016 874.595,-414.016"/>
<polygon fill="#d676e9" stroke="#d676e9" points="877.101,-118.529 878.239,-107.622 875.534,-113.781 873.966,-109.033 873.966,-109.033 873.966,-109.033 875.534,-113.781 869.693,-110.444 877.101,-118.529 877.101,-118.529"/>
</g>
<!-- Redirection -->
<g id="node22" class="node"><title>Redirection</title>
<ellipse fill="none" stroke="black" cx="868.166" cy="-18" rx="51.2242" ry="18"/>
<text text-anchor="middle" x="868.166" y="-13.8" font-family="Times,serif" font-size="14.00">Redirection</text>
</g>
<!-- Article&#45;&gt;Redirection -->
<g id="edge3" class="edge"><title>Article&#45;&gt;Redirection</title>
<path fill="none" stroke="#d41281" d="M881.523,-418.741C888.45,-412.936 896.618,-407.315 905.166,-404 966.401,-380.255 1143.15,-418.606 1200.17,-386 1222.96,-372.965 1233.17,-363.256 1233.17,-337 1233.17,-337 1233.17,-337 1233.17,-90 1233.17,-28.9303 1033.8,-19.3481 929.753,-18.5055"/>
<ellipse fill="none" stroke="#d41281" cx="878.525" cy="-421.404" rx="4.00002" ry="4.00002"/>
<polygon fill="#d41281" stroke="#d41281" points="929.687,-18.5052 919.713,-13.9489 924.687,-18.477 919.687,-18.4488 919.687,-18.4488 919.687,-18.4488 924.687,-18.477 919.662,-22.9488 929.687,-18.5052 929.687,-18.5052"/>
</g>
<!-- Resource -->
<g id="node23" class="node"><title>Resource</title>
<ellipse fill="none" stroke="black" cx="1376.17" cy="-336" rx="43.0215" ry="18"/>
<text text-anchor="middle" x="1376.17" y="-331.8" font-family="Times,serif" font-size="14.00">Resource</text>
</g>
<!-- Article&#45;&gt;Resource -->
<g id="edge9" class="edge"><title>Article&#45;&gt;Resource</title>
<path fill="none" stroke="#409d72" d="M881.5,-418.68C888.426,-412.873 896.599,-407.265 905.166,-404 981.052,-375.082 1191.31,-405.394 1270.17,-386 1295.95,-379.66 1323.09,-366.986 1343.45,-356.116"/>
<ellipse fill="none" stroke="#409d72" cx="878.502" cy="-421.348" rx="4.00002" ry="4.00002"/>
<polygon fill="#409d72" stroke="#409d72" points="1343.53,-356.075 1354.46,-355.226 1347.91,-353.676 1352.3,-351.278 1352.3,-351.278 1352.3,-351.278 1347.91,-353.676 1350.14,-347.329 1343.53,-356.075 1343.53,-356.075"/>
</g>
<!-- Tag -->
<g id="node26" class="node"><title>Tag</title>
<ellipse fill="none" stroke="black" cx="1464.17" cy="-336" rx="27" ry="18"/>
<text text-anchor="middle" x="1464.17" y="-331.8" font-family="Times,serif" font-size="14.00">Tag</text>
</g>
<!-- Article&#45;&gt;Tag -->
<g id="edge16" class="edge"><title>Article&#45;&gt;Tag</title>
<path fill="none" stroke="#4a12cd" d="M883.212,-417.241C889.754,-411.951 897.292,-406.982 905.166,-404 988.171,-372.569 1216.39,-399.16 1304.17,-386 1360.45,-377.561 1374.64,-373.349 1428.17,-354 1430.02,-353.33 1431.9,-352.599 1433.79,-351.828"/>
<polygon fill="#4a12cd" stroke="#4a12cd" points="883.03,-417.401 872.542,-420.603 879.268,-420.694 875.507,-423.988 875.507,-423.988 875.507,-423.988 879.268,-420.694 878.471,-427.374 883.03,-417.401 883.03,-417.401"/>
<polygon fill="#4a12cd" stroke="#4a12cd" points="1433.97,-351.753 1444.93,-351.869 1438.55,-349.75 1443.13,-347.746 1443.13,-347.746 1443.13,-347.746 1438.55,-349.75 1441.32,-343.623 1433.97,-351.753 1433.97,-351.753"/>
</g>
<!-- Trackback -->
<g id="node29" class="node"><title>Trackback</title>
<ellipse fill="none" stroke="black" cx="1055.17" cy="-336" rx="47.2261" ry="18"/>
<text text-anchor="middle" x="1055.17" y="-331.8" font-family="Times,serif" font-size="14.00">Trackback</text>
</g>
<!-- Article&#45;&gt;Trackback -->
<g id="edge7" class="edge"><title>Article&#45;&gt;Trackback</title>
<path fill="none" stroke="#0c7b33" d="M882.401,-418.393C889.165,-412.824 897.021,-407.421 905.166,-404 936.933,-390.658 1036.26,-411.739 1059.17,-386 1064.51,-379.993 1065.38,-371.77 1064.34,-363.776"/>
<ellipse fill="none" stroke="#0c7b33" cx="879.046" cy="-421.32" rx="4.00002" ry="4.00002"/>
<polygon fill="#0c7b33" stroke="#0c7b33" points="1064.33,-363.728 1066.6,-353 1063.27,-358.843 1062.21,-353.957 1062.21,-353.957 1062.21,-353.957 1063.27,-358.843 1057.81,-354.915 1064.33,-363.728 1064.33,-363.728"/>
</g>
<!-- Article&#45;&gt;Trackback -->
<g id="edge14" class="edge"><title>Article&#45;&gt;Trackback</title>
<path fill="none" stroke="#654371" d="M881.974,-418.118C899.164,-400.855 922.519,-378.418 933.869,-372 935.622,-371.009 975.351,-359.617 1008.87,-350.095"/>
<ellipse fill="none" stroke="#654371" cx="878.766" cy="-421.361" rx="4.00002" ry="4.00002"/>
<polygon fill="#654371" stroke="#654371" points="1008.95,-350.072 1019.8,-351.671 1013.76,-348.707 1018.57,-347.342 1018.57,-347.342 1018.57,-347.342 1013.76,-348.707 1017.34,-343.013 1008.95,-350.072 1008.95,-350.072"/>
<text text-anchor="middle" x="994.814" y="-374.8" font-family="Times,serif" font-size="14.00">published_trackbacks</text>
</g>
<!-- Trigger -->
<g id="node30" class="node"><title>Trigger</title>
<ellipse fill="none" stroke="black" cx="1030.17" cy="-91" rx="36.1363" ry="18"/>
<text text-anchor="middle" x="1030.17" y="-86.8" font-family="Times,serif" font-size="14.00">Trigger</text>
</g>
<!-- Article&#45;&gt;Trigger -->
<g id="edge5" class="edge"><title>Article&#45;&gt;Trigger</title>
<path fill="none" stroke="#15eafd" d="M882.377,-418.334C889.14,-412.763 897.002,-407.374 905.166,-404 1027.42,-353.477 1195.17,-469.284 1195.17,-337 1195.17,-337 1195.17,-337 1195.17,-163 1195.17,-111.176 1125.64,-96.7161 1076.85,-92.9487"/>
<ellipse fill="none" stroke="#15eafd" cx="879.022" cy="-421.265" rx="4.00002" ry="4.00002"/>
<polygon fill="#15eafd" stroke="#15eafd" points="1076.76,-92.9433 1067.08,-87.8069 1071.77,-92.6204 1066.78,-92.2975 1066.78,-92.2975 1066.78,-92.2975 1071.77,-92.6204 1066.49,-96.7881 1076.76,-92.9433 1076.76,-92.9433"/>
</g>
<!-- User -->
<g id="node31" class="node"><title>User</title>
<ellipse fill="none" stroke="black" cx="507.166" cy="-250" rx="27" ry="18"/>
<text text-anchor="middle" x="507.166" y="-245.8" font-family="Times,serif" font-size="14.00">User</text>
</g>
<!-- Article&#45;&gt;User -->
<g id="edge2" class="edge"><title>Article&#45;&gt;User</title>
<path fill="none" stroke="#8de731" d="M839.132,-417.208C832.59,-411.918 825.049,-406.957 817.166,-404 720.549,-367.762 447.785,-427.172 353.166,-386 334.661,-377.948 328.706,-372.632 320.952,-354 314.804,-339.228 312.371,-331.504 320.952,-318 352.512,-268.335 425.191,-255.135 469.844,-251.838"/>
<polygon fill="#8de731" stroke="#8de731" points="839.315,-417.369 843.87,-427.344 843.075,-420.664 846.836,-423.959 846.836,-423.959 846.836,-423.959 843.075,-420.664 849.802,-420.575 839.315,-417.369 839.315,-417.369"/>
<polygon fill="#8de731" stroke="#8de731" points="470.025,-251.828 480.279,-255.715 475.016,-251.525 480.007,-251.223 480.007,-251.223 480.007,-251.223 475.016,-251.525 479.735,-246.731 470.025,-251.828 470.025,-251.828"/>
<text text-anchor="middle" x="355.773" y="-331.8" font-family="Times,serif" font-size="14.00">notify_users</text>
</g>
<!-- Blog -->
<g id="node4" class="node"><title>Blog</title>
<ellipse fill="none" stroke="black" cx="941.166" cy="-440.5" rx="27.113" ry="18"/>
<text text-anchor="middle" x="941.166" y="-436.3" font-family="Times,serif" font-size="14.00">Blog</text>
</g>
<!-- BlogSweeper -->
<g id="node5" class="node"><title>BlogSweeper</title>
<polygon fill="none" stroke="black" points="1078.09,-458.5 986.237,-458.5 986.237,-422.5 1078.09,-422.5 1078.09,-458.5"/>
<text text-anchor="middle" x="1032.17" y="-436.3" font-family="Times,serif" font-size="14.00">BlogSweeper</text>
</g>
<!-- Category&#45;&gt;Categorization -->
<g id="edge18" class="edge"><title>Category&#45;&gt;Categorization</title>
<path fill="none" stroke="#f9073d" d="M100.336,-311.496C93.4265,-300.545 85.1941,-287.498 78.1466,-276.328"/>
<ellipse fill="none" stroke="#f9073d" cx="102.56" cy="-315.021" rx="4.00002" ry="4.00002"/>
<polygon fill="#f9073d" stroke="#f9073d" points="78.1328,-276.306 76.6024,-265.447 75.4647,-272.077 72.7966,-267.849 72.7966,-267.849 72.7966,-267.849 75.4647,-272.077 68.9908,-270.25 78.1328,-276.306 78.1328,-276.306"/>
</g>
<!-- Category&#45;&gt;Category -->
<g id="edge17" class="edge"><title>Category&#45;&gt;Category</title>
<path fill="none" stroke="#af39d9" d="M161.739,-343.397C169.959,-342.422 175.689,-339.957 175.689,-336 175.689,-332.366 170.856,-329.99 163.7,-328.871"/>
<ellipse fill="none" stroke="#af39d9" cx="157.575" cy="-343.64" rx="4" ry="4"/>
<polygon fill="#af39d9" stroke="#af39d9" points="163.555,-328.861 153.912,-323.639 158.568,-328.494 153.582,-328.127 153.582,-328.127 153.582,-328.127 158.568,-328.494 153.251,-332.615 163.555,-328.861 163.555,-328.861"/>
<text text-anchor="middle" x="198.623" y="-331.8" font-family="Times,serif" font-size="14.00">children</text>
</g>
<!-- Comment&#45;&gt;Notification -->
<g id="edge19" class="edge"><title>Comment&#45;&gt;Notification</title>
<path fill="none" stroke="#e07b98" d="M406.477,-318.264C399.535,-313.404 393.21,-307.367 389.166,-300 386.172,-294.546 388.293,-292.161 389.166,-286 399.49,-213.163 391.826,-186.442 435.166,-127 439.258,-121.387 444.542,-116.398 450.169,-112.07"/>
<ellipse fill="none" stroke="#e07b98" cx="410.181" cy="-320.602" rx="4.00002" ry="4.00002"/>
<polygon fill="#e07b98" stroke="#e07b98" points="450.364,-111.934 461.138,-109.894 454.462,-109.07 458.561,-106.206 458.561,-106.206 458.561,-106.206 454.462,-109.07 455.983,-102.517 450.364,-111.934 450.364,-111.934"/>
</g>
<!-- Comment&#45;&gt;Redirect -->
<g id="edge22" class="edge"><title>Comment&#45;&gt;Redirect</title>
<path fill="none" stroke="#a2a2df" d="M474.645,-314.346C488.58,-305.233 505.453,-294.651 521.166,-286 587,-249.753 609.945,-253.034 674.166,-214 716.705,-188.145 721.088,-172.599 763.166,-146 785.103,-132.132 811.024,-118.773 831.623,-108.812"/>
<polygon fill="#a2a2df" stroke="#a2a2df" points="474.298,-314.575 463.474,-316.333 470.126,-317.331 465.954,-320.087 465.954,-320.087 465.954,-320.087 470.126,-317.331 468.434,-323.842 474.298,-314.575 474.298,-314.575"/>
<polygon fill="#a2a2df" stroke="#a2a2df" points="831.656,-108.796 842.619,-108.545 836.168,-106.64 840.679,-104.485 840.679,-104.485 840.679,-104.485 836.168,-106.64 838.739,-100.424 831.656,-108.796 831.656,-108.796"/>
</g>
<!-- Comment&#45;&gt;Redirection -->
<g id="edge21" class="edge"><title>Comment&#45;&gt;Redirection</title>
<path fill="none" stroke="#776952" d="M403.834,-319.32C395.979,-314.354 388.764,-308.006 384.166,-300 333.064,-211.03 346.863,-138.101 426.166,-73 482.965,-26.3725 699.174,-19.2182 806.696,-18.624"/>
<ellipse fill="none" stroke="#776952" cx="407.695" cy="-321.519" rx="4.00002" ry="4.00002"/>
<polygon fill="#776952" stroke="#776952" points="806.754,-18.6239 816.771,-23.0859 811.754,-18.6049 816.754,-18.5859 816.754,-18.5859 816.754,-18.5859 811.754,-18.6049 816.736,-14.0859 806.754,-18.6239 806.754,-18.6239"/>
</g>
<!-- Comment&#45;&gt;Trigger -->
<g id="edge23" class="edge"><title>Comment&#45;&gt;Trigger</title>
<path fill="none" stroke="#58534d" d="M497.435,-333.633C567.902,-330.938 687.481,-323.021 724.166,-300 754.657,-280.866 742.073,-256.799 768.166,-232 823.589,-179.325 849.509,-181.622 917.166,-146 942.922,-132.439 972.643,-118.294 995.138,-107.884"/>
<ellipse fill="none" stroke="#58534d" cx="493.091" cy="-333.791" rx="4" ry="4"/>
<polygon fill="#58534d" stroke="#58534d" points="995.22,-107.846 1006.19,-107.751 999.762,-105.755 1004.3,-103.664 1004.3,-103.664 1004.3,-103.664 999.762,-105.755 1002.42,-99.5762 995.22,-107.846 995.22,-107.846"/>
</g>
<!-- Comment&#45;&gt;User -->
<g id="edge20" class="edge"><title>Comment&#45;&gt;User</title>
<path fill="none" stroke="#6b9845" d="M407.841,-316.001C396.185,-307.372 388.094,-296.711 395.952,-286 412.79,-263.049 444.687,-254.752 470.019,-251.934"/>
<polygon fill="#6b9845" stroke="#6b9845" points="407.992,-316.101 413.842,-325.376 412.16,-318.863 416.328,-321.625 416.328,-321.625 416.328,-321.625 412.16,-318.863 418.814,-317.875 407.992,-316.101 407.992,-316.101"/>
<polygon fill="#6b9845" stroke="#6b9845" points="470.097,-251.928 480.45,-255.541 475.078,-251.493 480.059,-251.058 480.059,-251.058 480.059,-251.058 475.078,-251.493 479.668,-246.575 470.097,-251.928 470.097,-251.928"/>
<text text-anchor="middle" x="430.773" y="-288.8" font-family="Times,serif" font-size="14.00">notify_users</text>
</g>
<!-- ConfigManager -->
<g id="node9" class="node"><title>ConfigManager</title>
<polygon fill="none" stroke="black" stroke-dasharray="1,5" points="1200.04,-458.5 1096.29,-458.5 1096.29,-422.5 1200.04,-422.5 1200.04,-458.5"/>
<text text-anchor="middle" x="1148.17" y="-436.3" font-family="Times,serif" font-size="14.00">ConfigManager</text>
</g>
<!-- Content -->
<g id="node10" class="node"><title>Content</title>
<ellipse fill="none" stroke="black" cx="597.166" cy="-164" rx="38.2197" ry="18"/>
<text text-anchor="middle" x="597.166" y="-159.8" font-family="Times,serif" font-size="14.00">Content</text>
</g>
<!-- Content&#45;&gt;Notification -->
<g id="edge24" class="edge"><title>Content&#45;&gt;Notification</title>
<path fill="none" stroke="#5f39fa" d="M568.562,-144.538C553.538,-134.84 535.069,-122.92 519.524,-112.886"/>
<ellipse fill="none" stroke="#5f39fa" cx="572.073" cy="-146.803" rx="4.00002" ry="4.00002"/>
<polygon fill="#5f39fa" stroke="#5f39fa" points="519.159,-112.65 513.198,-103.446 514.958,-109.939 510.757,-107.227 510.757,-107.227 510.757,-107.227 514.958,-109.939 508.317,-111.008 519.159,-112.65 519.159,-112.65"/>
</g>
<!-- Content&#45;&gt;Redirect -->
<g id="edge27" class="edge"><title>Content&#45;&gt;Redirect</title>
<path fill="none" stroke="#c7318a" d="M639.493,-151.911C689.934,-138.696 773.771,-116.731 824.706,-103.386"/>
<polygon fill="#c7318a" stroke="#c7318a" points="639.259,-151.972 628.445,-150.153 634.422,-153.239 629.586,-154.506 629.586,-154.506 629.586,-154.506 634.422,-153.239 630.726,-158.859 639.259,-151.972 639.259,-151.972"/>
<polygon fill="#c7318a" stroke="#c7318a" points="824.761,-103.372 835.575,-105.191 829.597,-102.105 834.434,-100.837 834.434,-100.837 834.434,-100.837 829.597,-102.105 833.294,-96.4844 824.761,-103.372 824.761,-103.372"/>
</g>
<!-- Content&#45;&gt;Redirection -->
<g id="edge26" class="edge"><title>Content&#45;&gt;Redirection</title>
<path fill="none" stroke="#4344bb" d="M614.872,-140.532C635.853,-115.497 673.171,-75.6949 714.166,-54 743.322,-38.5699 779.088,-29.9127 808.811,-25.0703"/>
<ellipse fill="none" stroke="#4344bb" cx="612.193" cy="-143.781" rx="4.00002" ry="4.00002"/>
<polygon fill="#4344bb" stroke="#4344bb" points="809.166,-25.0164 819.729,-27.9605 814.109,-24.264 819.052,-23.5117 819.052,-23.5117 819.052,-23.5117 814.109,-24.264 818.375,-19.0629 809.166,-25.0164 809.166,-25.0164"/>
</g>
<!-- Content&#45;&gt;Trigger -->
<g id="edge28" class="edge"><title>Content&#45;&gt;Trigger</title>
<path fill="none" stroke="#f71df3" d="M640.611,-155.876C723.402,-142.301 902.922,-112.864 986.153,-99.2169"/>
<ellipse fill="none" stroke="#f71df3" cx="636.547" cy="-156.542" rx="4.00001" ry="4.00001"/>
<polygon fill="#f71df3" stroke="#f71df3" points="986.182,-99.2121 996.779,-102.035 991.117,-98.403 996.051,-97.5939 996.051,-97.5939 996.051,-97.5939 991.117,-98.403 995.322,-93.1532 986.182,-99.2121 986.182,-99.2121"/>
</g>
<!-- Content&#45;&gt;User -->
<g id="edge25" class="edge"><title>Content&#45;&gt;User</title>
<path fill="none" stroke="#b4bc03" d="M601.319,-192.362C601.137,-199.946 599.566,-207.792 595.166,-214 583.375,-230.639 562.352,-239.37 543.811,-243.951"/>
<polygon fill="#b4bc03" stroke="#b4bc03" points="601.318,-192.352 605.335,-182.148 601.079,-187.357 600.84,-182.363 600.84,-182.363 600.84,-182.363 601.079,-187.357 596.345,-182.578 601.318,-192.352 601.318,-192.352"/>
<polygon fill="#b4bc03" stroke="#b4bc03" points="543.617,-243.993 532.895,-241.693 538.729,-245.043 533.84,-246.093 533.84,-246.093 533.84,-246.093 538.729,-245.043 534.786,-250.492 543.617,-243.993 543.617,-243.993"/>
<text text-anchor="middle" x="635.773" y="-202.8" font-family="Times,serif" font-size="14.00">notify_users</text>
</g>
<!-- EmailNotifier -->
<g id="node11" class="node"><title>EmailNotifier</title>
<polygon fill="none" stroke="black" points="1310.65,-458.5 1217.68,-458.5 1217.68,-422.5 1310.65,-422.5 1310.65,-458.5"/>
<text text-anchor="middle" x="1264.17" y="-436.3" font-family="Times,serif" font-size="14.00">EmailNotifier</text>
</g>
<!-- Feedback::States -->
<g id="node12" class="node"><title>Feedback::States</title>
<polygon fill="none" stroke="black" stroke-dasharray="1,5" points="1439.53,-458.5 1328.8,-458.5 1328.8,-422.5 1439.53,-422.5 1439.53,-458.5"/>
<text text-anchor="middle" x="1384.17" y="-436.3" font-family="Times,serif" font-size="14.00">Feedback::States</text>
</g>
<!-- Feedback&#45;&gt;Notification -->
<g id="edge29" class="edge"><title>Feedback&#45;&gt;Notification</title>
<path fill="none" stroke="#861f79" d="M682.399,-332.362C638.294,-328.751 573.872,-320.206 521.166,-300 496.53,-290.556 483.832,-291.144 471.166,-268 445.114,-220.396 462.698,-154.558 476.058,-118.406"/>
<ellipse fill="none" stroke="#861f79" cx="686.403" cy="-332.672" rx="4" ry="4"/>
<polygon fill="#861f79" stroke="#861f79" points="476.073,-118.366 483.872,-110.657 477.874,-113.701 479.674,-109.036 479.674,-109.036 479.674,-109.036 477.874,-113.701 475.476,-107.416 476.073,-118.366 476.073,-118.366"/>
</g>
<!-- Feedback&#45;&gt;Redirect -->
<g id="edge32" class="edge"><title>Feedback&#45;&gt;Redirect</title>
<path fill="none" stroke="#dfd82e" d="M748.266,-309.43C773.981,-262.798 828.216,-164.446 853.988,-117.71"/>
<polygon fill="#dfd82e" stroke="#dfd82e" points="748.205,-309.541 739.436,-316.125 745.791,-313.919 743.376,-318.298 743.376,-318.298 743.376,-318.298 745.791,-313.919 747.317,-320.471 748.205,-309.541 748.205,-309.541"/>
<polygon fill="#dfd82e" stroke="#dfd82e" points="854.062,-117.576 862.832,-110.992 856.477,-113.198 858.891,-108.819 858.891,-108.819 858.891,-108.819 856.477,-113.198 854.95,-106.646 854.062,-117.576 854.062,-117.576"/>
</g>
<!-- Feedback&#45;&gt;Redirection -->
<g id="edge31" class="edge"><title>Feedback&#45;&gt;Redirection</title>
<path fill="none" stroke="#8b0e90" d="M737.404,-309.637C744.728,-260.194 766.239,-149.111 819.166,-73 826.619,-62.2818 836.019,-51.4361 844.588,-42.3049"/>
<ellipse fill="none" stroke="#8b0e90" cx="736.798" cy="-313.895" rx="4.00001" ry="4.00001"/>
<polygon fill="#8b0e90" stroke="#8b0e90" points="844.602,-42.2904 854.774,-38.1956 848.065,-38.6844 851.529,-35.0784 851.529,-35.0784 851.529,-35.0784 848.065,-38.6844 848.283,-31.9611 844.602,-42.2904 844.602,-42.2904"/>
</g>
<!-- Feedback&#45;&gt;Trigger -->
<g id="edge33" class="edge"><title>Feedback&#45;&gt;Trigger</title>
<path fill="none" stroke="#0cceb9" d="M759.511,-314.193C815.187,-268.486 947.681,-159.715 1004.05,-113.436"/>
<ellipse fill="none" stroke="#0cceb9" cx="756.224" cy="-316.892" rx="4.00002" ry="4.00002"/>
<polygon fill="#0cceb9" stroke="#0cceb9" points="1004.38,-113.165 1014.97,-110.298 1008.25,-109.993 1012.11,-106.82 1012.11,-106.82 1012.11,-106.82 1008.25,-109.993 1009.26,-103.342 1004.38,-113.165 1004.38,-113.165"/>
</g>
<!-- Feedback&#45;&gt;User -->
<g id="edge30" class="edge"><title>Feedback&#45;&gt;User</title>
<path fill="none" stroke="#3907af" d="M681.307,-330.406C631.38,-325.218 560.835,-315.427 537.952,-300 529.51,-294.308 522.927,-285.444 518.054,-276.811"/>
<polygon fill="#3907af" stroke="#3907af" points="681.36,-330.412 690.859,-335.891 686.335,-330.913 691.31,-331.414 691.31,-331.414 691.31,-331.414 686.335,-330.913 691.761,-326.936 681.36,-330.412 681.36,-330.412"/>
<polygon fill="#3907af" stroke="#3907af" points="517.954,-276.614 517.445,-265.66 515.693,-272.154 513.431,-267.695 513.431,-267.695 513.431,-267.695 515.693,-272.154 509.418,-269.73 517.954,-276.614 517.954,-276.614"/>
<text text-anchor="middle" x="572.773" y="-288.8" font-family="Times,serif" font-size="14.00">notify_users</text>
</g>
<!-- NotificationMailer -->
<g id="node15" class="node"><title>NotificationMailer</title>
<polygon fill="none" stroke="black" points="1578.37,-458.5 1457.97,-458.5 1457.97,-422.5 1578.37,-422.5 1578.37,-458.5"/>
<text text-anchor="middle" x="1518.17" y="-436.3" font-family="Times,serif" font-size="14.00">NotificationMailer</text>
</g>
<!-- Page -->
<g id="node16" class="node"><title>Page</title>
<ellipse fill="none" stroke="black" cx="959.166" cy="-336" rx="27.0958" ry="18"/>
<text text-anchor="middle" x="959.166" y="-331.8" font-family="Times,serif" font-size="14.00">Page</text>
</g>
<!-- Page&#45;&gt;Notification -->
<g id="edge34" class="edge"><title>Page&#45;&gt;Notification</title>
<path fill="none" stroke="#ece87e" d="M935.17,-316.733C922.347,-307.223 906.154,-295.607 891.166,-286 784.932,-217.903 759.205,-197.852 644.166,-146 608.835,-130.075 567.31,-115.983 535.843,-106.191"/>
<ellipse fill="none" stroke="#ece87e" cx="938.713" cy="-319.38" rx="4.00002" ry="4.00002"/>
<polygon fill="#ece87e" stroke="#ece87e" points="535.559,-106.104 527.322,-98.8644 530.78,-104.635 526,-103.166 526,-103.166 526,-103.166 530.78,-104.635 524.678,-107.467 535.559,-106.104 535.559,-106.104"/>
</g>
<!-- Page&#45;&gt;Redirect -->
<g id="edge37" class="edge"><title>Page&#45;&gt;Redirect</title>
<path fill="none" stroke="#db86b5" d="M952.198,-308.249C942.462,-271.456 923.871,-203.279 905.166,-146 902.372,-137.445 902.722,-134.761 898.166,-127 895.87,-123.09 893.122,-119.196 890.233,-115.503"/>
<polygon fill="#db86b5" stroke="#db86b5" points="952.269,-308.516 950.463,-319.332 953.541,-313.351 954.814,-318.186 954.814,-318.186 954.814,-318.186 953.541,-313.351 959.166,-317.041 952.269,-308.516 952.269,-308.516"/>
<polygon fill="#db86b5" stroke="#db86b5" points="890.217,-115.484 887.259,-104.925 887.011,-111.647 883.806,-107.81 883.806,-107.81 883.806,-107.81 887.011,-111.647 880.352,-110.696 890.217,-115.484 890.217,-115.484"/>
</g>
<!-- Page&#45;&gt;Redirection -->
<g id="edge36" class="edge"><title>Page&#45;&gt;Redirection</title>
<path fill="none" stroke="#c882be" d="M987.012,-319.948C1032.85,-294.22 1119.17,-241.343 1119.17,-208 1119.17,-208 1119.17,-208 1119.17,-90 1119.17,-50.4245 1002.17,-31.7932 927.93,-23.9546"/>
<ellipse fill="none" stroke="#c882be" cx="983.251" cy="-322.04" rx="4.00002" ry="4.00002"/>
<polygon fill="#c882be" stroke="#c882be" points="927.704,-23.9316 918.211,-18.4422 922.73,-23.4254 917.755,-22.9191 917.755,-22.9191 917.755,-22.9191 922.73,-23.4254 917.3,-27.396 927.704,-23.9316 927.704,-23.9316"/>
</g>
<!-- Page&#45;&gt;Trigger -->
<g id="edge38" class="edge"><title>Page&#45;&gt;Trigger</title>
<path fill="none" stroke="#9f4da1" d="M969.894,-311.055C986.276,-273.13 1016.92,-196.509 1029.17,-128 1029.65,-125.267 1030,-122.399 1030.25,-119.525"/>
<ellipse fill="none" stroke="#9f4da1" cx="968.226" cy="-314.878" rx="4.00002" ry="4.00002"/>
<polygon fill="#9f4da1" stroke="#9f4da1" points="1030.26,-119.308 1035.22,-109.53 1030.49,-114.314 1030.73,-109.319 1030.73,-109.319 1030.73,-109.319 1030.49,-114.314 1026.23,-109.109 1030.26,-119.308 1030.26,-119.308"/>
</g>
<!-- Page&#45;&gt;User -->
<g id="edge35" class="edge"><title>Page&#45;&gt;User</title>
<path fill="none" stroke="#d1b5d7" d="M922.653,-330.17C877.319,-324.003 797.693,-312.608 729.952,-300 663.09,-287.556 585.677,-269.757 541.958,-259.387"/>
<polygon fill="#d1b5d7" stroke="#d1b5d7" points="922.69,-330.175 931.998,-335.974 927.645,-330.845 932.6,-331.515 932.6,-331.515 932.6,-331.515 927.645,-330.845 933.203,-327.055 922.69,-330.175 922.69,-330.175"/>
<polygon fill="#d1b5d7" stroke="#d1b5d7" points="541.844,-259.36 533.159,-252.666 536.98,-258.202 532.116,-257.043 532.116,-257.043 532.116,-257.043 536.98,-258.202 531.073,-261.421 541.844,-259.36 541.844,-259.36"/>
<text text-anchor="middle" x="764.773" y="-288.8" font-family="Times,serif" font-size="14.00">notify_users</text>
</g>
<!-- PageCache -->
<g id="node17" class="node"><title>PageCache</title>
<polygon fill="none" stroke="black" points="1674.36,-458.5 1595.97,-458.5 1595.97,-422.5 1674.36,-422.5 1674.36,-458.5"/>
<text text-anchor="middle" x="1635.17" y="-436.3" font-family="Times,serif" font-size="14.00">PageCache</text>
</g>
<!-- PostType -->
<g id="node19" class="node"><title>PostType</title>
<ellipse fill="none" stroke="black" cx="1735.17" cy="-440.5" rx="42.7972" ry="18"/>
<text text-anchor="middle" x="1735.17" y="-436.3" font-family="Times,serif" font-size="14.00">PostType</text>
</g>
<!-- Profile -->
<g id="node20" class="node"><title>Profile</title>
<ellipse fill="none" stroke="black" cx="1826.17" cy="-336" rx="33.8857" ry="18"/>
<text text-anchor="middle" x="1826.17" y="-331.8" font-family="Times,serif" font-size="14.00">Profile</text>
</g>
<!-- Redirect&#45;&gt;Redirection -->
<g id="edge39" class="edge"><title>Redirect&#45;&gt;Redirection</title>
<path fill="none" stroke="#fc251d" d="M868.166,-64.791C868.166,-58.832 868.166,-52.4496 868.166,-46.3988"/>
<ellipse fill="none" stroke="#fc251d" cx="868.166" cy="-68.8129" rx="4" ry="4"/>
<polygon fill="#fc251d" stroke="#fc251d" points="868.166,-46.0288 872.666,-36.0288 868.166,-41.0288 868.166,-36.0288 868.166,-36.0288 868.166,-36.0288 868.166,-41.0288 863.666,-36.0289 868.166,-46.0288 868.166,-46.0288"/>
</g>
<!-- Right -->
<g id="node24" class="node"><title>Right</title>
<ellipse fill="none" stroke="black" cx="1826.17" cy="-440.5" rx="29.5275" ry="18"/>
<text text-anchor="middle" x="1826.17" y="-436.3" font-family="Times,serif" font-size="14.00">Right</text>
</g>
<!-- Right&#45;&gt;Profile -->
<g id="edge40" class="edge"><title>Right&#45;&gt;Profile</title>
<path fill="none" stroke="#d21157" d="M1826.17,-411.974C1826.17,-397.155 1826.17,-378.94 1826.17,-364.175"/>
<polygon fill="#d21157" stroke="#d21157" points="1826.17,-412.112 1821.67,-422.112 1826.17,-417.112 1826.17,-422.112 1826.17,-422.112 1826.17,-422.112 1826.17,-417.112 1830.67,-422.112 1826.17,-412.112 1826.17,-412.112"/>
<polygon fill="#d21157" stroke="#d21157" points="1826.17,-364.131 1830.67,-354.131 1826.17,-359.131 1826.17,-354.131 1826.17,-354.131 1826.17,-354.131 1826.17,-359.131 1821.67,-354.131 1826.17,-364.131 1826.17,-364.131"/>
</g>
<!-- Sidebar -->
<g id="node25" class="node"><title>Sidebar</title>
<ellipse fill="none" stroke="black" cx="1911.17" cy="-440.5" rx="37.2421" ry="18"/>
<text text-anchor="middle" x="1911.17" y="-436.3" font-family="Times,serif" font-size="14.00">Sidebar</text>
</g>
<!-- TextFilter -->
<g id="node27" class="node"><title>TextFilter</title>
<ellipse fill="none" stroke="black" cx="2011.17" cy="-440.5" rx="44.7096" ry="18"/>
<text text-anchor="middle" x="2011.17" y="-436.3" font-family="Times,serif" font-size="14.00">TextFilter</text>
</g>
<!-- Theme -->
<g id="node28" class="node"><title>Theme</title>
<polygon fill="none" stroke="black" points="2128.54,-458.5 2073.8,-458.5 2073.8,-422.5 2128.54,-422.5 2128.54,-458.5"/>
<text text-anchor="middle" x="2101.17" y="-436.3" font-family="Times,serif" font-size="14.00">Theme</text>
</g>
<!-- Trackback&#45;&gt;Notification -->
<g id="edge41" class="edge"><title>Trackback&#45;&gt;Notification</title>
<path fill="none" stroke="#3f97a1" d="M1024.73,-315.842C964.23,-278.488 823.7,-195.278 696.166,-146 645.356,-126.368 584.87,-111.621 542.074,-102.541"/>
<ellipse fill="none" stroke="#3f97a1" cx="1028.3" cy="-318.057" rx="4.00002" ry="4.00002"/>
<polygon fill="#3f97a1" stroke="#3f97a1" points="541.925,-102.51 533.056,-96.0618 537.031,-101.489 532.136,-100.467 532.136,-100.467 532.136,-100.467 537.031,-101.489 531.217,-104.872 541.925,-102.51 541.925,-102.51"/>
</g>
<!-- Trackback&#45;&gt;Redirect -->
<g id="edge44" class="edge"><title>Trackback&#45;&gt;Redirect</title>
<path fill="none" stroke="#9fbdb3" d="M1041.1,-309.224C1017.85,-267.98 968.448,-185.822 913.166,-127 908.43,-121.961 902.926,-117.065 897.428,-112.609"/>
<polygon fill="#9fbdb3" stroke="#9fbdb3" points="1041.17,-309.355 1042.11,-320.28 1043.61,-313.721 1046.04,-318.087 1046.04,-318.087 1046.04,-318.087 1043.61,-313.721 1049.97,-315.893 1041.17,-309.355 1041.17,-309.355"/>
<polygon fill="#9fbdb3" stroke="#9fbdb3" points="897.366,-112.561 892.223,-102.876 893.415,-109.496 889.464,-106.431 889.464,-106.431 889.464,-106.431 893.415,-109.496 886.706,-109.987 897.366,-112.561 897.366,-112.561"/>
</g>
<!-- Trackback&#45;&gt;Redirection -->
<g id="edge43" class="edge"><title>Trackback&#45;&gt;Redirection</title>
<path fill="none" stroke="#9f157e" d="M1096.31,-319.963C1124.63,-306.664 1157.17,-284.167 1157.17,-251 1157.17,-251 1157.17,-251 1157.17,-90 1157.17,-43.3935 1013.63,-27.2151 928.868,-21.7246"/>
<ellipse fill="none" stroke="#9f157e" cx="1092.5" cy="-321.673" rx="4.00002" ry="4.00002"/>
<polygon fill="#9f157e" stroke="#9f157e" points="928.818,-21.7216 919.113,-16.6152 923.827,-21.4141 918.836,-21.1067 918.836,-21.1067 918.836,-21.1067 923.827,-21.4141 918.56,-25.5982 928.818,-21.7216 928.818,-21.7216"/>
</g>
<!-- Trackback&#45;&gt;Trigger -->
<g id="edge45" class="edge"><title>Trackback&#45;&gt;Trigger</title>
<path fill="none" stroke="#25f283" d="M1064.79,-310.19C1065.77,-306.81 1066.61,-303.35 1067.17,-300 1068.19,-293.862 1067.36,-292.219 1067.17,-286 1064.94,-215.229 1082.11,-193.269 1057.17,-127 1055.72,-123.151 1053.69,-119.379 1051.39,-115.821"/>
<ellipse fill="none" stroke="#25f283" cx="1063.54" cy="-314.041" rx="4.00001" ry="4.00001"/>
<polygon fill="#25f283" stroke="#25f283" points="1051.21,-115.564 1048.93,-104.837 1048.25,-111.53 1045.3,-107.496 1045.3,-107.496 1045.3,-107.496 1048.25,-111.53 1041.67,-110.155 1051.21,-115.564 1051.21,-115.564"/>
</g>
<!-- Trackback&#45;&gt;User -->
<g id="edge42" class="edge"><title>Trackback&#45;&gt;User</title>
<path fill="none" stroke="#1c14d4" d="M1009.61,-321.508C1004.76,-320.245 999.872,-319.047 995.166,-318 952.087,-308.414 842.863,-292.183 799.166,-286 707.505,-273.03 599.207,-260.875 543.819,-254.887"/>
<polygon fill="#1c14d4" stroke="#1c14d4" points="1009.83,-321.566 1018.31,-328.513 1014.66,-322.867 1019.48,-324.168 1019.48,-324.168 1019.48,-324.168 1014.66,-322.867 1020.66,-319.823 1009.83,-321.566 1009.83,-321.566"/>
<polygon fill="#1c14d4" stroke="#1c14d4" points="543.73,-254.877 534.269,-249.333 538.759,-254.342 533.787,-253.807 533.787,-253.807 533.787,-253.807 538.759,-254.342 533.306,-258.282 543.73,-254.877 543.73,-254.877"/>
<text text-anchor="middle" x="923.773" y="-288.8" font-family="Times,serif" font-size="14.00">notify_users</text>
</g>
<!-- User&#45;&gt;Article -->
<g id="edge48" class="edge"><title>User&#45;&gt;Article</title>
<path fill="none" stroke="#e74ac0" d="M509.969,-276.269C511.969,-284.612 515.375,-293.429 521.166,-300 585.411,-372.896 629.218,-357.678 722.166,-386 763.273,-398.526 778.16,-385.966 817.166,-404 824.683,-407.475 832.024,-412.516 838.49,-417.713"/>
<ellipse fill="none" stroke="#e74ac0" cx="509.164" cy="-272.112" rx="4.00001" ry="4.00001"/>
<polygon fill="#e74ac0" stroke="#e74ac0" points="838.559,-417.772 843.232,-427.693 842.358,-421.023 846.158,-424.273 846.158,-424.273 846.158,-424.273 842.358,-421.023 849.083,-420.854 838.559,-417.772 838.559,-417.772"/>
</g>
<!-- User&#45;&gt;Content -->
<g id="edge47" class="edge"><title>User&#45;&gt;Content</title>
<path fill="none" stroke="#5846fc" d="M499.456,-222.057C498.773,-214.368 499.666,-206.36 504.069,-200 514.587,-184.81 532.576,-176.203 549.954,-171.331"/>
<polygon fill="#5846fc" stroke="#5846fc" points="499.498,-222.302 496.746,-232.917 500.34,-227.231 501.182,-232.159 501.182,-232.159 501.182,-232.159 500.34,-227.231 505.618,-231.401 499.498,-222.302 499.498,-222.302"/>
<polygon fill="#5846fc" stroke="#5846fc" points="550.337,-171.237 561.118,-173.244 555.196,-170.054 560.054,-168.871 560.054,-168.871 560.054,-168.871 555.196,-170.054 558.989,-164.499 550.337,-171.237 550.337,-171.237"/>
<text text-anchor="middle" x="547.714" y="-202.8" font-family="Times,serif" font-size="14.00">notify_contents</text>
</g>
<!-- User&#45;&gt;Notification -->
<g id="edge46" class="edge"><title>User&#45;&gt;Notification</title>
<path fill="none" stroke="#40149f" d="M498.635,-224.325C497.675,-220.889 496.812,-217.378 496.166,-214 490.011,-181.838 488.006,-144.163 487.384,-119.282"/>
<ellipse fill="none" stroke="#40149f" cx="499.834" cy="-228.284" rx="4.00001" ry="4.00001"/>
<polygon fill="#40149f" stroke="#40149f" points="487.381,-119.134 491.689,-109.049 487.285,-114.135 487.19,-109.136 487.19,-109.136 487.19,-109.136 487.285,-114.135 482.69,-109.222 487.381,-119.134 487.381,-119.134"/>
</g>
<!-- WebNotifier -->
<g id="node32" class="node"><title>WebNotifier</title>
<polygon fill="none" stroke="black" points="2231.53,-458.5 2146.8,-458.5 2146.8,-422.5 2231.53,-422.5 2231.53,-458.5"/>
<text text-anchor="middle" x="2189.17" y="-436.3" font-family="Times,serif" font-size="14.00">WebNotifier</text>
</g>
</g>
</svg>
