<?xml version="1.0" encoding="UTF-8" standalone="no"?>
<!DOCTYPE svg PUBLIC "-//W3C//DTD SVG 1.1//EN"
 "http://www.w3.org/Graphics/SVG/1.1/DTD/svg11.dtd">
<!-- Generated by graphviz version 2.38.0 (20140413.2041)
 -->
<!-- Title: models_diagram Pages: 1 -->
<svg width="2680pt" height="1720pt"
 viewBox="0.00 0.00 2679.62 1720.00" xmlns="http://www.w3.org/2000/svg" xmlns:xlink="http://www.w3.org/1999/xlink">
<g id="graph0" class="graph" transform="scale(1 1) rotate(0) translate(4 1716)">
<title>models_diagram</title>
<polygon fill="none" stroke="none" points="-4,4 -4,-1716 2675.62,-1716 2675.62,4 -4,4"/>
<!-- _diagram_info -->
<g id="node1" class="node"><title>_diagram_info</title>
<text text-anchor="start" x="470.468" y="-1557.6" font-family="Times,serif" font-size="13.00">Models diagram</text>
<text text-anchor="start" x="470.468" y="-1544.6" font-family="Times,serif" font-size="13.00">Date: Jan 21 2016 &#45; 21:35</text>
<text text-anchor="start" x="470.468" y="-1531.6" font-family="Times,serif" font-size="13.00">Migration version: 104</text>
<text text-anchor="start" x="470.468" y="-1518.6" font-family="Times,serif" font-size="13.00">Generated by RailRoady 1.4.2</text>
<text text-anchor="start" x="470.468" y="-1505.6" font-family="Times,serif" font-size="13.00">http://railroady.prestonlee.com</text>
</g>
<!-- Article::States -->
<g id="node2" class="node"><title>Article::States</title>
<polygon fill="none" stroke="black" stroke-dasharray="1,5" points="752.278,-1553.5 656.099,-1553.5 656.099,-1517.5 752.278,-1517.5 752.278,-1553.5"/>
<text text-anchor="middle" x="704.189" y="-1531.3" font-family="Times,serif" font-size="14.00">Article::States</text>
</g>
<!-- Article -->
<g id="node3" class="node"><title>Article</title>
<path fill="none" stroke="black" d="M782.511,-1359.5C782.511,-1359.5 921.866,-1359.5 921.866,-1359.5 927.866,-1359.5 933.866,-1365.5 933.866,-1371.5 933.866,-1371.5 933.866,-1699.5 933.866,-1699.5 933.866,-1705.5 927.866,-1711.5 921.866,-1711.5 921.866,-1711.5 782.511,-1711.5 782.511,-1711.5 776.511,-1711.5 770.511,-1705.5 770.511,-1699.5 770.511,-1699.5 770.511,-1371.5 770.511,-1371.5 770.511,-1365.5 776.511,-1359.5 782.511,-1359.5"/>
<text text-anchor="middle" x="852.189" y="-1696.3" font-family="Times,serif" font-size="14.00">Article</text>
<polyline fill="none" stroke="black" points="770.511,-1689.5 933.866,-1689.5 "/>
<text text-anchor="start" x="778.511" y="-1674.3" font-family="Times,serif" font-size="14.00">id :INTEGER</text>
<text text-anchor="start" x="778.511" y="-1660.3" font-family="Times,serif" font-size="14.00">type :varchar(255)</text>
<text text-anchor="start" x="778.511" y="-1646.3" font-family="Times,serif" font-size="14.00">title :varchar(255)</text>
<text text-anchor="start" x="778.511" y="-1632.3" font-family="Times,serif" font-size="14.00">author :varchar(255)</text>
<text text-anchor="start" x="778.511" y="-1618.3" font-family="Times,serif" font-size="14.00">body :text</text>
<text text-anchor="start" x="778.511" y="-1604.3" font-family="Times,serif" font-size="14.00">extended :text</text>
<text text-anchor="start" x="778.511" y="-1590.3" font-family="Times,serif" font-size="14.00">excerpt :text</text>
<text text-anchor="start" x="778.511" y="-1576.3" font-family="Times,serif" font-size="14.00">created_at :datetime</text>
<text text-anchor="start" x="778.511" y="-1562.3" font-family="Times,serif" font-size="14.00">updated_at :datetime</text>
<text text-anchor="start" x="778.511" y="-1548.3" font-family="Times,serif" font-size="14.00">user_id :integer</text>
<text text-anchor="start" x="778.511" y="-1534.3" font-family="Times,serif" font-size="14.00">permalink :varchar(255)</text>
<text text-anchor="start" x="778.511" y="-1520.3" font-family="Times,serif" font-size="14.00">guid :varchar(255)</text>
<text text-anchor="start" x="778.511" y="-1506.3" font-family="Times,serif" font-size="14.00">text_filter_id :integer</text>
<text text-anchor="start" x="778.511" y="-1492.3" font-family="Times,serif" font-size="14.00">whiteboard :text</text>
<text text-anchor="start" x="778.511" y="-1478.3" font-family="Times,serif" font-size="14.00">name :varchar(255)</text>
<text text-anchor="start" x="778.511" y="-1464.3" font-family="Times,serif" font-size="14.00">published :boolean</text>
<text text-anchor="start" x="778.511" y="-1450.3" font-family="Times,serif" font-size="14.00">allow_pings :boolean</text>
<text text-anchor="start" x="778.511" y="-1436.3" font-family="Times,serif" font-size="14.00">allow_comments :boolean</text>
<text text-anchor="start" x="778.511" y="-1422.3" font-family="Times,serif" font-size="14.00">published_at :datetime</text>
<text text-anchor="start" x="778.511" y="-1408.3" font-family="Times,serif" font-size="14.00">state :varchar(255)</text>
<text text-anchor="start" x="778.511" y="-1394.3" font-family="Times,serif" font-size="14.00">parent_id :integer</text>
<text text-anchor="start" x="778.511" y="-1380.3" font-family="Times,serif" font-size="14.00">settings :text</text>
<text text-anchor="start" x="778.511" y="-1366.3" font-family="Times,serif" font-size="14.00">post_type :varchar(255)</text>
</g>
<!-- Categorization -->
<g id="node6" class="node"><title>Categorization</title>
<path fill="none" stroke="black" d="M21.0074,-742.5C21.0074,-742.5 125.37,-742.5 125.37,-742.5 131.37,-742.5 137.37,-748.5 137.37,-754.5 137.37,-754.5 137.37,-816.5 137.37,-816.5 137.37,-822.5 131.37,-828.5 125.37,-828.5 125.37,-828.5 21.0074,-828.5 21.0074,-828.5 15.0074,-828.5 9.00742,-822.5 9.00742,-816.5 9.00742,-816.5 9.00742,-754.5 9.00742,-754.5 9.00742,-748.5 15.0074,-742.5 21.0074,-742.5"/>
<text text-anchor="middle" x="73.1886" y="-813.3" font-family="Times,serif" font-size="14.00">Categorization</text>
<polyline fill="none" stroke="black" points="9.00742,-806.5 137.37,-806.5 "/>
<text text-anchor="start" x="17.0074" y="-791.3" font-family="Times,serif" font-size="14.00">id :INTEGER</text>
<text text-anchor="start" x="17.0074" y="-777.3" font-family="Times,serif" font-size="14.00">article_id :integer</text>
<text text-anchor="start" x="17.0074" y="-763.3" font-family="Times,serif" font-size="14.00">category_id :integer</text>
<text text-anchor="start" x="17.0074" y="-749.3" font-family="Times,serif" font-size="14.00">is_primary :boolean</text>
</g>
<!-- Article&#45;&gt;Categorization -->
<g id="edge10" class="edge"><title>Article&#45;&gt;Categorization</title>
<path fill="none" stroke="#37b304" d="M763.854,-1360.74C762.974,-1360.15 762.085,-1359.57 761.189,-1359 716.301,-1330.54 336.112,-1345.88 283.189,-1341 186.114,-1332.04 129.896,-1382.79 66.1886,-1309 -49.5377,-1174.96 15.2914,-941.538 52.6106,-838.23"/>
<ellipse fill="none" stroke="#37b304" cx="767.197" cy="-1363.16" rx="4.00002" ry="4.00002"/>
<polygon fill="#37b304" stroke="#37b304" points="52.6827,-838.034 60.3536,-830.198 54.406,-833.34 56.1293,-828.647 56.1293,-828.647 56.1293,-828.647 54.406,-833.34 51.905,-827.096 52.6827,-838.034 52.6827,-838.034"/>
</g>
<!-- Category -->
<g id="node7" class="node"><title>Category</title>
<path fill="none" stroke="black" d="M86.9693,-1068.5C86.9693,-1068.5 215.408,-1068.5 215.408,-1068.5 221.408,-1068.5 227.408,-1074.5 227.408,-1080.5 227.408,-1080.5 227.408,-1184.5 227.408,-1184.5 227.408,-1190.5 221.408,-1196.5 215.408,-1196.5 215.408,-1196.5 86.9693,-1196.5 86.9693,-1196.5 80.9693,-1196.5 74.9693,-1190.5 74.9693,-1184.5 74.9693,-1184.5 74.9693,-1080.5 74.9693,-1080.5 74.9693,-1074.5 80.9693,-1068.5 86.9693,-1068.5"/>
<text text-anchor="middle" x="151.189" y="-1181.3" font-family="Times,serif" font-size="14.00">Category</text>
<polyline fill="none" stroke="black" points="74.9693,-1174.5 227.408,-1174.5 "/>
<text text-anchor="start" x="82.9693" y="-1159.3" font-family="Times,serif" font-size="14.00">id :INTEGER</text>
<text text-anchor="start" x="82.9693" y="-1145.3" font-family="Times,serif" font-size="14.00">name :varchar(255)</text>
<text text-anchor="start" x="82.9693" y="-1131.3" font-family="Times,serif" font-size="14.00">position :integer</text>
<text text-anchor="start" x="82.9693" y="-1117.3" font-family="Times,serif" font-size="14.00">permalink :varchar(255)</text>
<text text-anchor="start" x="82.9693" y="-1103.3" font-family="Times,serif" font-size="14.00">keywords :text</text>
<text text-anchor="start" x="82.9693" y="-1089.3" font-family="Times,serif" font-size="14.00">description :text</text>
<text text-anchor="start" x="82.9693" y="-1075.3" font-family="Times,serif" font-size="14.00">parent_id :integer</text>
</g>
<!-- Article&#45;&gt;Category -->
<g id="edge11" class="edge"><title>Article&#45;&gt;Category</title>
<path fill="none" stroke="#170846" d="M762.082,-1359.57C761.785,-1359.38 761.487,-1359.19 761.189,-1359 718.294,-1331.75 349.088,-1364.8 304.189,-1341 249.204,-1311.85 208.814,-1253.16 183.384,-1205.61"/>
<polygon fill="#170846" stroke="#170846" points="762.282,-1359.72 767.829,-1369.17 766.358,-1362.61 770.435,-1365.51 770.435,-1365.51 770.435,-1365.51 766.358,-1362.61 773.041,-1361.84 762.282,-1359.72 762.282,-1359.72"/>
<polygon fill="#170846" stroke="#170846" points="183.289,-1205.43 182.642,-1194.48 180.972,-1201 178.654,-1196.57 178.654,-1196.57 178.654,-1196.57 180.972,-1201 174.667,-1198.65 183.289,-1205.43 183.289,-1205.43"/>
</g>
<!-- Comment -->
<g id="node8" class="node"><title>Comment</title>
<path fill="none" stroke="black" d="M477.507,-970.5C477.507,-970.5 616.87,-970.5 616.87,-970.5 622.87,-970.5 628.87,-976.5 628.87,-982.5 628.87,-982.5 628.87,-1282.5 628.87,-1282.5 628.87,-1288.5 622.87,-1294.5 616.87,-1294.5 616.87,-1294.5 477.507,-1294.5 477.507,-1294.5 471.507,-1294.5 465.507,-1288.5 465.507,-1282.5 465.507,-1282.5 465.507,-982.5 465.507,-982.5 465.507,-976.5 471.507,-970.5 477.507,-970.5"/>
<text text-anchor="middle" x="547.189" y="-1279.3" font-family="Times,serif" font-size="14.00">Comment</text>
<polyline fill="none" stroke="black" points="465.507,-1272.5 628.87,-1272.5 "/>
<text text-anchor="start" x="473.507" y="-1257.3" font-family="Times,serif" font-size="14.00">id :INTEGER</text>
<text text-anchor="start" x="473.507" y="-1243.3" font-family="Times,serif" font-size="14.00">type :varchar(255)</text>
<text text-anchor="start" x="473.507" y="-1229.3" font-family="Times,serif" font-size="14.00">title :varchar(255)</text>
<text text-anchor="start" x="473.507" y="-1215.3" font-family="Times,serif" font-size="14.00">author :varchar(255)</text>
<text text-anchor="start" x="473.507" y="-1201.3" font-family="Times,serif" font-size="14.00">body :text</text>
<text text-anchor="start" x="473.507" y="-1187.3" font-family="Times,serif" font-size="14.00">excerpt :text</text>
<text text-anchor="start" x="473.507" y="-1173.3" font-family="Times,serif" font-size="14.00">created_at :datetime</text>
<text text-anchor="start" x="473.507" y="-1159.3" font-family="Times,serif" font-size="14.00">updated_at :datetime</text>
<text text-anchor="start" x="473.507" y="-1145.3" font-family="Times,serif" font-size="14.00">user_id :integer</text>
<text text-anchor="start" x="473.507" y="-1131.3" font-family="Times,serif" font-size="14.00">guid :varchar(255)</text>
<text text-anchor="start" x="473.507" y="-1117.3" font-family="Times,serif" font-size="14.00">text_filter_id :integer</text>
<text text-anchor="start" x="473.507" y="-1103.3" font-family="Times,serif" font-size="14.00">whiteboard :text</text>
<text text-anchor="start" x="473.507" y="-1089.3" font-family="Times,serif" font-size="14.00">article_id :integer</text>
<text text-anchor="start" x="473.507" y="-1075.3" font-family="Times,serif" font-size="14.00">email :varchar(255)</text>
<text text-anchor="start" x="473.507" y="-1061.3" font-family="Times,serif" font-size="14.00">url :varchar(255)</text>
<text text-anchor="start" x="473.507" y="-1047.3" font-family="Times,serif" font-size="14.00">ip :varchar(40)</text>
<text text-anchor="start" x="473.507" y="-1033.3" font-family="Times,serif" font-size="14.00">blog_name :varchar(255)</text>
<text text-anchor="start" x="473.507" y="-1019.3" font-family="Times,serif" font-size="14.00">published :boolean</text>
<text text-anchor="start" x="473.507" y="-1005.3" font-family="Times,serif" font-size="14.00">published_at :datetime</text>
<text text-anchor="start" x="473.507" y="-991.3" font-family="Times,serif" font-size="14.00">state :varchar(255)</text>
<text text-anchor="start" x="473.507" y="-977.3" font-family="Times,serif" font-size="14.00">status_confirmed :boolean</text>
</g>
<!-- Article&#45;&gt;Comment -->
<g id="edge12" class="edge"><title>Article&#45;&gt;Comment</title>
<path fill="none" stroke="#19d749" d="M764.161,-1361.2C763.181,-1360.46 762.19,-1359.72 761.189,-1359 719.2,-1328.78 687.67,-1371.91 646.189,-1341 632.143,-1330.53 620.003,-1317.56 609.529,-1303.24"/>
<ellipse fill="none" stroke="#19d749" cx="767.384" cy="-1363.82" rx="4.00002" ry="4.00002"/>
<polygon fill="#19d749" stroke="#19d749" points="609.27,-1302.87 607.245,-1292.09 606.412,-1298.76 603.553,-1294.66 603.553,-1294.66 603.553,-1294.66 606.412,-1298.76 599.861,-1297.23 609.27,-1302.87 609.27,-1302.87"/>
</g>
<!-- Article&#45;&gt;Comment -->
<g id="edge13" class="edge"><title>Article&#45;&gt;Comment</title>
<path fill="none" stroke="#a05dca" d="M763.825,-1360.78C762.955,-1360.18 762.076,-1359.58 761.189,-1359 714.288,-1328.15 547.459,-1382.09 509.202,-1341 499.211,-1330.27 493.274,-1317.82 490.367,-1304.45"/>
<ellipse fill="none" stroke="#a05dca" cx="767.138" cy="-1363.25" rx="4.00002" ry="4.00002"/>
<polygon fill="#a05dca" stroke="#a05dca" points="490.365,-1304.44 493.214,-1293.85 489.568,-1299.51 488.771,-1294.57 488.771,-1294.57 488.771,-1294.57 489.568,-1299.51 484.329,-1295.29 490.365,-1304.44 490.365,-1304.44"/>
<text text-anchor="middle" x="569.682" y="-1329.8" font-family="Times,serif" font-size="14.00">published_comments</text>
</g>
<!-- Feedback -->
<g id="node13" class="node"><title>Feedback</title>
<path fill="none" stroke="black" d="M697.507,-970.5C697.507,-970.5 836.87,-970.5 836.87,-970.5 842.87,-970.5 848.87,-976.5 848.87,-982.5 848.87,-982.5 848.87,-1282.5 848.87,-1282.5 848.87,-1288.5 842.87,-1294.5 836.87,-1294.5 836.87,-1294.5 697.507,-1294.5 697.507,-1294.5 691.507,-1294.5 685.507,-1288.5 685.507,-1282.5 685.507,-1282.5 685.507,-982.5 685.507,-982.5 685.507,-976.5 691.507,-970.5 697.507,-970.5"/>
<text text-anchor="middle" x="767.189" y="-1279.3" font-family="Times,serif" font-size="14.00">Feedback</text>
<polyline fill="none" stroke="black" points="685.507,-1272.5 848.87,-1272.5 "/>
<text text-anchor="start" x="693.507" y="-1257.3" font-family="Times,serif" font-size="14.00">id :INTEGER</text>
<text text-anchor="start" x="693.507" y="-1243.3" font-family="Times,serif" font-size="14.00">type :varchar(255)</text>
<text text-anchor="start" x="693.507" y="-1229.3" font-family="Times,serif" font-size="14.00">title :varchar(255)</text>
<text text-anchor="start" x="693.507" y="-1215.3" font-family="Times,serif" font-size="14.00">author :varchar(255)</text>
<text text-anchor="start" x="693.507" y="-1201.3" font-family="Times,serif" font-size="14.00">body :text</text>
<text text-anchor="start" x="693.507" y="-1187.3" font-family="Times,serif" font-size="14.00">excerpt :text</text>
<text text-anchor="start" x="693.507" y="-1173.3" font-family="Times,serif" font-size="14.00">created_at :datetime</text>
<text text-anchor="start" x="693.507" y="-1159.3" font-family="Times,serif" font-size="14.00">updated_at :datetime</text>
<text text-anchor="start" x="693.507" y="-1145.3" font-family="Times,serif" font-size="14.00">user_id :integer</text>
<text text-anchor="start" x="693.507" y="-1131.3" font-family="Times,serif" font-size="14.00">guid :varchar(255)</text>
<text text-anchor="start" x="693.507" y="-1117.3" font-family="Times,serif" font-size="14.00">text_filter_id :integer</text>
<text text-anchor="start" x="693.507" y="-1103.3" font-family="Times,serif" font-size="14.00">whiteboard :text</text>
<text text-anchor="start" x="693.507" y="-1089.3" font-family="Times,serif" font-size="14.00">article_id :integer</text>
<text text-anchor="start" x="693.507" y="-1075.3" font-family="Times,serif" font-size="14.00">email :varchar(255)</text>
<text text-anchor="start" x="693.507" y="-1061.3" font-family="Times,serif" font-size="14.00">url :varchar(255)</text>
<text text-anchor="start" x="693.507" y="-1047.3" font-family="Times,serif" font-size="14.00">ip :varchar(40)</text>
<text text-anchor="start" x="693.507" y="-1033.3" font-family="Times,serif" font-size="14.00">blog_name :varchar(255)</text>
<text text-anchor="start" x="693.507" y="-1019.3" font-family="Times,serif" font-size="14.00">published :boolean</text>
<text text-anchor="start" x="693.507" y="-1005.3" font-family="Times,serif" font-size="14.00">published_at :datetime</text>
<text text-anchor="start" x="693.507" y="-991.3" font-family="Times,serif" font-size="14.00">state :varchar(255)</text>
<text text-anchor="start" x="693.507" y="-977.3" font-family="Times,serif" font-size="14.00">status_confirmed :boolean</text>
</g>
<!-- Article&#45;&gt;Feedback -->
<g id="edge8" class="edge"><title>Article&#45;&gt;Feedback</title>
<path fill="none" stroke="#617162" d="M842.719,-1351.41C841.385,-1343.13 839.882,-1334.96 838.189,-1327 836.592,-1319.49 834.766,-1311.89 832.758,-1304.25"/>
<ellipse fill="none" stroke="#617162" cx="843.338" cy="-1355.42" rx="4.00001" ry="4.00001"/>
<polygon fill="#617162" stroke="#617162" points="832.748,-1304.21 834.463,-1293.38 831.435,-1299.39 830.121,-1294.57 830.121,-1294.57 830.121,-1294.57 831.435,-1299.39 825.779,-1295.75 832.748,-1304.21 832.748,-1304.21"/>
</g>
<!-- Article&#45;&gt;Feedback -->
<g id="edge15" class="edge"><title>Article&#45;&gt;Feedback</title>
<path fill="none" stroke="#e548ab" d="M764.642,-1362.39C763.503,-1361.24 762.352,-1360.11 761.189,-1359 747.398,-1345.82 732.506,-1357.07 722.23,-1341 715.06,-1329.79 710.807,-1317.62 708.79,-1304.97"/>
<ellipse fill="none" stroke="#e548ab" cx="767.478" cy="-1365.36" rx="4.00002" ry="4.00002"/>
<polygon fill="#e548ab" stroke="#e548ab" points="708.757,-1304.68 712.11,-1294.24 708.198,-1299.71 707.638,-1294.74 707.638,-1294.74 707.638,-1294.74 708.198,-1299.71 703.167,-1295.24 708.757,-1304.68 708.757,-1304.68"/>
<text text-anchor="middle" x="779.168" y="-1329.8" font-family="Times,serif" font-size="14.00">published_feedback</text>
</g>
<!-- Notification -->
<g id="node14" class="node"><title>Notification</title>
<path fill="none" stroke="black" d="M433.683,-117.5C433.683,-117.5 542.694,-117.5 542.694,-117.5 548.694,-117.5 554.694,-123.5 554.694,-129.5 554.694,-129.5 554.694,-205.5 554.694,-205.5 554.694,-211.5 548.694,-217.5 542.694,-217.5 542.694,-217.5 433.683,-217.5 433.683,-217.5 427.683,-217.5 421.683,-211.5 421.683,-205.5 421.683,-205.5 421.683,-129.5 421.683,-129.5 421.683,-123.5 427.683,-117.5 433.683,-117.5"/>
<text text-anchor="middle" x="488.189" y="-202.3" font-family="Times,serif" font-size="14.00">Notification</text>
<polyline fill="none" stroke="black" points="421.683,-195.5 554.694,-195.5 "/>
<text text-anchor="start" x="429.683" y="-180.3" font-family="Times,serif" font-size="14.00">id :INTEGER</text>
<text text-anchor="start" x="429.683" y="-166.3" font-family="Times,serif" font-size="14.00">content_id :integer</text>
<text text-anchor="start" x="429.683" y="-152.3" font-family="Times,serif" font-size="14.00">user_id :integer</text>
<text text-anchor="start" x="429.683" y="-138.3" font-family="Times,serif" font-size="14.00">created_at :datetime</text>
<text text-anchor="start" x="429.683" y="-124.3" font-family="Times,serif" font-size="14.00">updated_at :datetime</text>
</g>
<!-- Article&#45;&gt;Notification -->
<g id="edge1" class="edge"><title>Article&#45;&gt;Notification</title>
<path fill="none" stroke="#c6613f" d="M763.843,-1360.76C762.967,-1360.16 762.082,-1359.57 761.189,-1359 727.591,-1337.4 440.171,-1353.35 402.189,-1341 377.452,-1332.96 365.57,-1331.87 353.189,-1309 275.851,-1166.12 328.689,-435.845 403.189,-262 408.682,-249.182 416.688,-236.964 425.621,-225.839"/>
<ellipse fill="none" stroke="#c6613f" cx="767.175" cy="-1363.19" rx="4.00002" ry="4.00002"/>
<polygon fill="#c6613f" stroke="#c6613f" points="425.83,-225.591 435.71,-220.835 429.048,-221.765 432.267,-217.938 432.267,-217.938 432.267,-217.938 429.048,-221.765 428.823,-215.041 425.83,-225.591 425.83,-225.591"/>
</g>
<!-- Ping -->
<g id="node18" class="node"><title>Ping</title>
<path fill="none" stroke="black" d="M1356.64,-1089.5C1356.64,-1089.5 1461.74,-1089.5 1461.74,-1089.5 1467.74,-1089.5 1473.74,-1095.5 1473.74,-1101.5 1473.74,-1101.5 1473.74,-1163.5 1473.74,-1163.5 1473.74,-1169.5 1467.74,-1175.5 1461.74,-1175.5 1461.74,-1175.5 1356.64,-1175.5 1356.64,-1175.5 1350.64,-1175.5 1344.64,-1169.5 1344.64,-1163.5 1344.64,-1163.5 1344.64,-1101.5 1344.64,-1101.5 1344.64,-1095.5 1350.64,-1089.5 1356.64,-1089.5"/>
<text text-anchor="middle" x="1409.19" y="-1160.3" font-family="Times,serif" font-size="14.00">Ping</text>
<polyline fill="none" stroke="black" points="1344.64,-1153.5 1473.74,-1153.5 "/>
<text text-anchor="start" x="1352.64" y="-1138.3" font-family="Times,serif" font-size="14.00">id :INTEGER</text>
<text text-anchor="start" x="1352.64" y="-1124.3" font-family="Times,serif" font-size="14.00">article_id :integer</text>
<text text-anchor="start" x="1352.64" y="-1110.3" font-family="Times,serif" font-size="14.00">url :varchar(255)</text>
<text text-anchor="start" x="1352.64" y="-1096.3" font-family="Times,serif" font-size="14.00">created_at :datetime</text>
</g>
<!-- Article&#45;&gt;Ping -->
<g id="edge6" class="edge"><title>Article&#45;&gt;Ping</title>
<path fill="none" stroke="#1442da" d="M940.912,-1359.83C941.336,-1359.55 941.761,-1359.27 942.189,-1359 1014.78,-1312.3 1260.28,-1391.62 1330.19,-1341 1379.45,-1305.33 1398,-1234.81 1404.98,-1185.95"/>
<ellipse fill="none" stroke="#1442da" cx="937.475" cy="-1362.28" rx="4.00002" ry="4.00002"/>
<polygon fill="#1442da" stroke="#1442da" points="1405,-1185.78 1410.76,-1176.45 1405.65,-1180.83 1406.3,-1175.87 1406.3,-1175.87 1406.3,-1175.87 1405.65,-1180.83 1401.84,-1175.28 1405,-1185.78 1405,-1185.78"/>
</g>
<!-- Redirect -->
<g id="node21" class="node"><title>Redirect</title>
<path fill="none" stroke="black" d="M810.19,-110.5C810.19,-110.5 940.187,-110.5 940.187,-110.5 946.187,-110.5 952.187,-116.5 952.187,-122.5 952.187,-122.5 952.187,-212.5 952.187,-212.5 952.187,-218.5 946.187,-224.5 940.187,-224.5 940.187,-224.5 810.19,-224.5 810.19,-224.5 804.19,-224.5 798.19,-218.5 798.19,-212.5 798.19,-212.5 798.19,-122.5 798.19,-122.5 798.19,-116.5 804.19,-110.5 810.19,-110.5"/>
<text text-anchor="middle" x="875.189" y="-209.3" font-family="Times,serif" font-size="14.00">Redirect</text>
<polyline fill="none" stroke="black" points="798.19,-202.5 952.187,-202.5 "/>
<text text-anchor="start" x="806.19" y="-187.3" font-family="Times,serif" font-size="14.00">id :INTEGER</text>
<text text-anchor="start" x="806.19" y="-173.3" font-family="Times,serif" font-size="14.00">from_path :varchar(255)</text>
<text text-anchor="start" x="806.19" y="-159.3" font-family="Times,serif" font-size="14.00">to_path :varchar(255)</text>
<text text-anchor="start" x="806.19" y="-145.3" font-family="Times,serif" font-size="14.00">origin :varchar(255)</text>
<text text-anchor="start" x="806.19" y="-131.3" font-family="Times,serif" font-size="14.00">created_at :datetime</text>
<text text-anchor="start" x="806.19" y="-117.3" font-family="Times,serif" font-size="14.00">updated_at :datetime</text>
</g>
<!-- Article&#45;&gt;Redirect -->
<g id="edge4" class="edge"><title>Article&#45;&gt;Redirect</title>
<path fill="none" stroke="#936e67" d="M860.934,-1349.17C869.481,-1185.61 883.084,-970.834 896.189,-956 922.907,-925.755 959.637,-969.237 985.189,-938 989.128,-933.184 985.615,-930.208 985.189,-924 974.72,-771.591 917.69,-393.452 891.189,-243 890.694,-240.191 890.169,-237.326 889.622,-234.436"/>
<polygon fill="#936e67" stroke="#936e67" points="860.923,-1349.38 855.91,-1359.14 860.664,-1354.38 860.404,-1359.37 860.404,-1359.37 860.404,-1359.37 860.664,-1354.38 864.898,-1359.6 860.923,-1349.38 860.923,-1349.38"/>
<polygon fill="#936e67" stroke="#936e67" points="889.608,-234.365 892.11,-223.688 888.651,-229.457 887.693,-224.55 887.693,-224.55 887.693,-224.55 888.651,-229.457 883.277,-225.412 889.608,-234.365 889.608,-234.365"/>
</g>
<!-- Redirection -->
<g id="node22" class="node"><title>Redirection</title>
<path fill="none" stroke="black" d="M825.742,-0.5C825.742,-0.5 924.635,-0.5 924.635,-0.5 930.635,-0.5 936.635,-6.5 936.635,-12.5 936.635,-12.5 936.635,-60.5 936.635,-60.5 936.635,-66.5 930.635,-72.5 924.635,-72.5 924.635,-72.5 825.742,-72.5 825.742,-72.5 819.742,-72.5 813.742,-66.5 813.742,-60.5 813.742,-60.5 813.742,-12.5 813.742,-12.5 813.742,-6.5 819.742,-0.5 825.742,-0.5"/>
<text text-anchor="middle" x="875.189" y="-57.3" font-family="Times,serif" font-size="14.00">Redirection</text>
<polyline fill="none" stroke="black" points="813.742,-50.5 936.635,-50.5 "/>
<text text-anchor="start" x="821.742" y="-35.3" font-family="Times,serif" font-size="14.00">id :INTEGER</text>
<text text-anchor="start" x="821.742" y="-21.3" font-family="Times,serif" font-size="14.00">content_id :integer</text>
<text text-anchor="start" x="821.742" y="-7.3" font-family="Times,serif" font-size="14.00">redirect_id :integer</text>
</g>
<!-- Article&#45;&gt;Redirection -->
<g id="edge3" class="edge"><title>Article&#45;&gt;Redirection</title>
<path fill="none" stroke="#03430d" d="M940.329,-1360.26C940.945,-1359.84 941.565,-1359.41 942.189,-1359 985.805,-1330 1125.65,-1350.3 1177.19,-1341 1227.71,-1331.88 1254.17,-1347.46 1288.19,-1309 1340.52,-1249.83 1316.19,-1212.49 1316.19,-1133.5 1316.19,-1133.5 1316.19,-1133.5 1316.19,-166.5 1316.19,-90.5592 1072.25,-56.2226 947.226,-43.6113"/>
<ellipse fill="none" stroke="#03430d" cx="937.102" cy="-1362.65" rx="4.00002" ry="4.00002"/>
<polygon fill="#03430d" stroke="#03430d" points="946.924,-43.5815 937.414,-38.1206 941.948,-43.0902 936.972,-42.5988 936.972,-42.5988 936.972,-42.5988 941.948,-43.0902 936.53,-47.077 946.924,-43.5815 946.924,-43.5815"/>
</g>
<!-- Resource -->
<g id="node23" class="node"><title>Resource</title>
<path fill="none" stroke="black" d="M1503.91,-1012.5C1503.91,-1012.5 1670.47,-1012.5 1670.47,-1012.5 1676.47,-1012.5 1682.47,-1018.5 1682.47,-1024.5 1682.47,-1024.5 1682.47,-1240.5 1682.47,-1240.5 1682.47,-1246.5 1676.47,-1252.5 1670.47,-1252.5 1670.47,-1252.5 1503.91,-1252.5 1503.91,-1252.5 1497.91,-1252.5 1491.91,-1246.5 1491.91,-1240.5 1491.91,-1240.5 1491.91,-1024.5 1491.91,-1024.5 1491.91,-1018.5 1497.91,-1012.5 1503.91,-1012.5"/>
<text text-anchor="middle" x="1587.19" y="-1237.3" font-family="Times,serif" font-size="14.00">Resource</text>
<polyline fill="none" stroke="black" points="1491.91,-1230.5 1682.47,-1230.5 "/>
<text text-anchor="start" x="1499.91" y="-1215.3" font-family="Times,serif" font-size="14.00">id :INTEGER</text>
<text text-anchor="start" x="1499.91" y="-1201.3" font-family="Times,serif" font-size="14.00">size :integer</text>
<text text-anchor="start" x="1499.91" y="-1187.3" font-family="Times,serif" font-size="14.00">filename :varchar(255)</text>
<text text-anchor="start" x="1499.91" y="-1173.3" font-family="Times,serif" font-size="14.00">mime :varchar(255)</text>
<text text-anchor="start" x="1499.91" y="-1159.3" font-family="Times,serif" font-size="14.00">created_at :datetime</text>
<text text-anchor="start" x="1499.91" y="-1145.3" font-family="Times,serif" font-size="14.00">updated_at :datetime</text>
<text text-anchor="start" x="1499.91" y="-1131.3" font-family="Times,serif" font-size="14.00">article_id :integer</text>
<text text-anchor="start" x="1499.91" y="-1117.3" font-family="Times,serif" font-size="14.00">itunes_metadata :boolean</text>
<text text-anchor="start" x="1499.91" y="-1103.3" font-family="Times,serif" font-size="14.00">itunes_author :varchar(255)</text>
<text text-anchor="start" x="1499.91" y="-1089.3" font-family="Times,serif" font-size="14.00">itunes_subtitle :varchar(255)</text>
<text text-anchor="start" x="1499.91" y="-1075.3" font-family="Times,serif" font-size="14.00">itunes_duration :integer</text>
<text text-anchor="start" x="1499.91" y="-1061.3" font-family="Times,serif" font-size="14.00">itunes_summary :text</text>
<text text-anchor="start" x="1499.91" y="-1047.3" font-family="Times,serif" font-size="14.00">itunes_keywords :varchar(255)</text>
<text text-anchor="start" x="1499.91" y="-1033.3" font-family="Times,serif" font-size="14.00">itunes_category :varchar(255)</text>
<text text-anchor="start" x="1499.91" y="-1019.3" font-family="Times,serif" font-size="14.00">itunes_explicit :boolean</text>
</g>
<!-- Article&#45;&gt;Resource -->
<g id="edge9" class="edge"><title>Article&#45;&gt;Resource</title>
<path fill="none" stroke="#984c07" d="M940.911,-1359.83C941.335,-1359.55 941.761,-1359.27 942.189,-1359 980.474,-1334.44 1306.15,-1347.39 1351.19,-1341 1410.96,-1332.52 1434.66,-1344.9 1483.19,-1309 1500.72,-1296.03 1515.83,-1279.15 1528.68,-1260.99"/>
<ellipse fill="none" stroke="#984c07" cx="937.471" cy="-1362.28" rx="4.00002" ry="4.00002"/>
<polygon fill="#984c07" stroke="#984c07" points="1528.79,-1260.83 1538.14,-1255.1 1531.61,-1256.69 1534.42,-1252.56 1534.42,-1252.56 1534.42,-1252.56 1531.61,-1256.69 1530.71,-1250.03 1528.79,-1260.83 1528.79,-1260.83"/>
</g>
<!-- Tag -->
<g id="node26" class="node"><title>Tag</title>
<path fill="none" stroke="black" d="M1712.47,-1082.5C1712.47,-1082.5 1861.91,-1082.5 1861.91,-1082.5 1867.91,-1082.5 1873.91,-1088.5 1873.91,-1094.5 1873.91,-1094.5 1873.91,-1170.5 1873.91,-1170.5 1873.91,-1176.5 1867.91,-1182.5 1861.91,-1182.5 1861.91,-1182.5 1712.47,-1182.5 1712.47,-1182.5 1706.47,-1182.5 1700.47,-1176.5 1700.47,-1170.5 1700.47,-1170.5 1700.47,-1094.5 1700.47,-1094.5 1700.47,-1088.5 1706.47,-1082.5 1712.47,-1082.5"/>
<text text-anchor="middle" x="1787.19" y="-1167.3" font-family="Times,serif" font-size="14.00">Tag</text>
<polyline fill="none" stroke="black" points="1700.47,-1160.5 1873.91,-1160.5 "/>
<text text-anchor="start" x="1708.47" y="-1145.3" font-family="Times,serif" font-size="14.00">id :INTEGER</text>
<text text-anchor="start" x="1708.47" y="-1131.3" font-family="Times,serif" font-size="14.00">name :varchar(255)</text>
<text text-anchor="start" x="1708.47" y="-1117.3" font-family="Times,serif" font-size="14.00">created_at :datetime</text>
<text text-anchor="start" x="1708.47" y="-1103.3" font-family="Times,serif" font-size="14.00">updated_at :datetime</text>
<text text-anchor="start" x="1708.47" y="-1089.3" font-family="Times,serif" font-size="14.00">display_name :varchar(255)</text>
</g>
<!-- Article&#45;&gt;Tag -->
<g id="edge16" class="edge"><title>Article&#45;&gt;Tag</title>
<path fill="none" stroke="#b2d85d" d="M943.855,-1361.18C1014.47,-1344.62 1391.5,-1342.9 1416.19,-1341 1538.87,-1331.55 1589.15,-1377.77 1691.19,-1309 1731.5,-1281.83 1756.42,-1231.92 1770.74,-1192.24"/>
<polygon fill="#b2d85d" stroke="#b2d85d" points="943.631,-1361.26 932.705,-1360.32 938.914,-1362.91 934.196,-1364.57 934.196,-1364.57 934.196,-1364.57 938.914,-1362.91 935.687,-1368.82 943.631,-1361.26 943.631,-1361.26"/>
<polygon fill="#b2d85d" stroke="#b2d85d" points="1770.79,-1192.1 1778.32,-1184.13 1772.43,-1187.38 1774.07,-1182.66 1774.07,-1182.66 1774.07,-1182.66 1772.43,-1187.38 1769.82,-1181.18 1770.79,-1192.1 1770.79,-1192.1"/>
</g>
<!-- Trackback -->
<g id="node29" class="node"><title>Trackback</title>
<path fill="none" stroke="black" d="M1098.51,-970.5C1098.51,-970.5 1237.87,-970.5 1237.87,-970.5 1243.87,-970.5 1249.87,-976.5 1249.87,-982.5 1249.87,-982.5 1249.87,-1282.5 1249.87,-1282.5 1249.87,-1288.5 1243.87,-1294.5 1237.87,-1294.5 1237.87,-1294.5 1098.51,-1294.5 1098.51,-1294.5 1092.51,-1294.5 1086.51,-1288.5 1086.51,-1282.5 1086.51,-1282.5 1086.51,-982.5 1086.51,-982.5 1086.51,-976.5 1092.51,-970.5 1098.51,-970.5"/>
<text text-anchor="middle" x="1168.19" y="-1279.3" font-family="Times,serif" font-size="14.00">Trackback</text>
<polyline fill="none" stroke="black" points="1086.51,-1272.5 1249.87,-1272.5 "/>
<text text-anchor="start" x="1094.51" y="-1257.3" font-family="Times,serif" font-size="14.00">id :INTEGER</text>
<text text-anchor="start" x="1094.51" y="-1243.3" font-family="Times,serif" font-size="14.00">type :varchar(255)</text>
<text text-anchor="start" x="1094.51" y="-1229.3" font-family="Times,serif" font-size="14.00">title :varchar(255)</text>
<text text-anchor="start" x="1094.51" y="-1215.3" font-family="Times,serif" font-size="14.00">author :varchar(255)</text>
<text text-anchor="start" x="1094.51" y="-1201.3" font-family="Times,serif" font-size="14.00">body :text</text>
<text text-anchor="start" x="1094.51" y="-1187.3" font-family="Times,serif" font-size="14.00">excerpt :text</text>
<text text-anchor="start" x="1094.51" y="-1173.3" font-family="Times,serif" font-size="14.00">created_at :datetime</text>
<text text-anchor="start" x="1094.51" y="-1159.3" font-family="Times,serif" font-size="14.00">updated_at :datetime</text>
<text text-anchor="start" x="1094.51" y="-1145.3" font-family="Times,serif" font-size="14.00">user_id :integer</text>
<text text-anchor="start" x="1094.51" y="-1131.3" font-family="Times,serif" font-size="14.00">guid :varchar(255)</text>
<text text-anchor="start" x="1094.51" y="-1117.3" font-family="Times,serif" font-size="14.00">text_filter_id :integer</text>
<text text-anchor="start" x="1094.51" y="-1103.3" font-family="Times,serif" font-size="14.00">whiteboard :text</text>
<text text-anchor="start" x="1094.51" y="-1089.3" font-family="Times,serif" font-size="14.00">article_id :integer</text>
<text text-anchor="start" x="1094.51" y="-1075.3" font-family="Times,serif" font-size="14.00">email :varchar(255)</text>
<text text-anchor="start" x="1094.51" y="-1061.3" font-family="Times,serif" font-size="14.00">url :varchar(255)</text>
<text text-anchor="start" x="1094.51" y="-1047.3" font-family="Times,serif" font-size="14.00">ip :varchar(40)</text>
<text text-anchor="start" x="1094.51" y="-1033.3" font-family="Times,serif" font-size="14.00">blog_name :varchar(255)</text>
<text text-anchor="start" x="1094.51" y="-1019.3" font-family="Times,serif" font-size="14.00">published :boolean</text>
<text text-anchor="start" x="1094.51" y="-1005.3" font-family="Times,serif" font-size="14.00">published_at :datetime</text>
<text text-anchor="start" x="1094.51" y="-991.3" font-family="Times,serif" font-size="14.00">state :varchar(255)</text>
<text text-anchor="start" x="1094.51" y="-977.3" font-family="Times,serif" font-size="14.00">status_confirmed :boolean</text>
</g>
<!-- Article&#45;&gt;Trackback -->
<g id="edge7" class="edge"><title>Article&#45;&gt;Trackback</title>
<path fill="none" stroke="#9b9156" d="M940.373,-1360.32C940.974,-1359.88 941.579,-1359.44 942.189,-1359 987.118,-1326.85 1020.47,-1373.45 1065.19,-1341 1079.68,-1330.49 1092.24,-1317.36 1103.11,-1302.84"/>
<ellipse fill="none" stroke="#9b9156" cx="937.212" cy="-1362.82" rx="4.00002" ry="4.00002"/>
<polygon fill="#9b9156" stroke="#9b9156" points="1103.16,-1302.77 1112.64,-1297.26 1106.07,-1298.71 1108.98,-1294.64 1108.98,-1294.64 1108.98,-1294.64 1106.07,-1298.71 1105.32,-1292.02 1103.16,-1302.77 1103.16,-1302.77"/>
</g>
<!-- Article&#45;&gt;Trackback -->
<g id="edge14" class="edge"><title>Article&#45;&gt;Trackback</title>
<path fill="none" stroke="#57307c" d="M913.55,-1352.93C921.319,-1343.27 930.06,-1334.48 939.892,-1327 989.23,-1289.48 1027.5,-1344.67 1078.19,-1309 1081.48,-1306.68 1084.66,-1304.21 1087.73,-1301.6"/>
<ellipse fill="none" stroke="#57307c" cx="911.018" cy="-1356.23" rx="4.00002" ry="4.00002"/>
<polygon fill="#57307c" stroke="#57307c" points="1087.76,-1301.57 1098.18,-1298.15 1091.45,-1298.2 1095.14,-1294.83 1095.14,-1294.83 1095.14,-1294.83 1091.45,-1298.2 1092.11,-1291.51 1087.76,-1301.57 1087.76,-1301.57"/>
<text text-anchor="middle" x="1000.84" y="-1329.8" font-family="Times,serif" font-size="14.00">published_trackbacks</text>
</g>
<!-- Trigger -->
<g id="node30" class="node"><title>Trigger</title>
<path fill="none" stroke="black" d="M982.304,-117.5C982.304,-117.5 1162.07,-117.5 1162.07,-117.5 1168.07,-117.5 1174.07,-123.5 1174.07,-129.5 1174.07,-129.5 1174.07,-205.5 1174.07,-205.5 1174.07,-211.5 1168.07,-217.5 1162.07,-217.5 1162.07,-217.5 982.304,-217.5 982.304,-217.5 976.304,-217.5 970.304,-211.5 970.304,-205.5 970.304,-205.5 970.304,-129.5 970.304,-129.5 970.304,-123.5 976.304,-117.5 982.304,-117.5"/>
<text text-anchor="middle" x="1072.19" y="-202.3" font-family="Times,serif" font-size="14.00">Trigger</text>
<polyline fill="none" stroke="black" points="970.304,-195.5 1174.07,-195.5 "/>
<text text-anchor="start" x="978.304" y="-180.3" font-family="Times,serif" font-size="14.00">id :INTEGER</text>
<text text-anchor="start" x="978.304" y="-166.3" font-family="Times,serif" font-size="14.00">pending_item_id :integer</text>
<text text-anchor="start" x="978.304" y="-152.3" font-family="Times,serif" font-size="14.00">pending_item_type :varchar(255)</text>
<text text-anchor="start" x="978.304" y="-138.3" font-family="Times,serif" font-size="14.00">due_at :datetime</text>
<text text-anchor="start" x="978.304" y="-124.3" font-family="Times,serif" font-size="14.00">trigger_method :varchar(255)</text>
</g>
<!-- Article&#45;&gt;Trigger -->
<g id="edge5" class="edge"><title>Article&#45;&gt;Trigger</title>
<path fill="none" stroke="#80a88b" d="M940.359,-1360.3C940.965,-1359.86 941.575,-1359.43 942.189,-1359 968.798,-1340.39 1055.1,-1345.97 1087.19,-1341 1164.03,-1329.09 1206.34,-1366.03 1259.19,-1309 1312.51,-1251.45 1278.19,-1211.96 1278.19,-1133.5 1278.19,-1133.5 1278.19,-1133.5 1278.19,-437.5 1278.19,-349.68 1208.13,-272.802 1149.72,-223.971"/>
<ellipse fill="none" stroke="#80a88b" cx="937.176" cy="-1362.77" rx="4.00002" ry="4.00002"/>
<polygon fill="#80a88b" stroke="#80a88b" points="1149.65,-223.917 1144.79,-214.09 1145.79,-220.741 1141.93,-217.565 1141.93,-217.565 1141.93,-217.565 1145.79,-220.741 1139.07,-221.041 1149.65,-223.917 1149.65,-223.917"/>
</g>
<!-- User -->
<g id="node31" class="node"><title>User</title>
<path fill="none" stroke="black" d="M489.704,-665.5C489.704,-665.5 696.673,-665.5 696.673,-665.5 702.673,-665.5 708.673,-671.5 708.673,-677.5 708.673,-677.5 708.673,-893.5 708.673,-893.5 708.673,-899.5 702.673,-905.5 696.673,-905.5 696.673,-905.5 489.704,-905.5 489.704,-905.5 483.704,-905.5 477.704,-899.5 477.704,-893.5 477.704,-893.5 477.704,-677.5 477.704,-677.5 477.704,-671.5 483.704,-665.5 489.704,-665.5"/>
<text text-anchor="middle" x="593.189" y="-890.3" font-family="Times,serif" font-size="14.00">User</text>
<polyline fill="none" stroke="black" points="477.704,-883.5 708.673,-883.5 "/>
<text text-anchor="start" x="485.704" y="-868.3" font-family="Times,serif" font-size="14.00">id :INTEGER</text>
<text text-anchor="start" x="485.704" y="-854.3" font-family="Times,serif" font-size="14.00">login :varchar(255)</text>
<text text-anchor="start" x="485.704" y="-840.3" font-family="Times,serif" font-size="14.00">password :varchar(255)</text>
<text text-anchor="start" x="485.704" y="-826.3" font-family="Times,serif" font-size="14.00">email :text</text>
<text text-anchor="start" x="485.704" y="-812.3" font-family="Times,serif" font-size="14.00">name :text</text>
<text text-anchor="start" x="485.704" y="-798.3" font-family="Times,serif" font-size="14.00">notify_via_email :boolean</text>
<text text-anchor="start" x="485.704" y="-784.3" font-family="Times,serif" font-size="14.00">notify_on_new_articles :boolean</text>
<text text-anchor="start" x="485.704" y="-770.3" font-family="Times,serif" font-size="14.00">notify_on_comments :boolean</text>
<text text-anchor="start" x="485.704" y="-756.3" font-family="Times,serif" font-size="14.00">profile_id :integer</text>
<text text-anchor="start" x="485.704" y="-742.3" font-family="Times,serif" font-size="14.00">remember_token :varchar(255)</text>
<text text-anchor="start" x="485.704" y="-728.3" font-family="Times,serif" font-size="14.00">remember_token_expires_at :datetime</text>
<text text-anchor="start" x="485.704" y="-714.3" font-family="Times,serif" font-size="14.00">text_filter_id :varchar(255)</text>
<text text-anchor="start" x="485.704" y="-700.3" font-family="Times,serif" font-size="14.00">state :varchar(255)</text>
<text text-anchor="start" x="485.704" y="-686.3" font-family="Times,serif" font-size="14.00">last_connection :datetime</text>
<text text-anchor="start" x="485.704" y="-672.3" font-family="Times,serif" font-size="14.00">settings :text</text>
</g>
<!-- Article&#45;&gt;User -->
<g id="edge2" class="edge"><title>Article&#45;&gt;User</title>
<path fill="none" stroke="#a7bd33" d="M762.074,-1359.59C761.78,-1359.39 761.485,-1359.19 761.189,-1359 711.821,-1326.65 554.297,-1351.36 496.189,-1341 446.394,-1332.12 417.298,-1349.48 386.975,-1309 339.947,-1246.22 353.463,-1026.93 386.975,-956 405.074,-917.694 436.545,-885.13 469.529,-859.094"/>
<polygon fill="#a7bd33" stroke="#a7bd33" points="762.277,-1359.73 767.701,-1369.27 766.316,-1362.68 770.355,-1365.63 770.355,-1365.63 770.355,-1365.63 766.316,-1362.68 773.008,-1362 762.277,-1359.73 762.277,-1359.73"/>
<polygon fill="#a7bd33" stroke="#a7bd33" points="469.566,-859.065 480.233,-856.521 473.525,-856.011 477.485,-852.958 477.485,-852.958 477.485,-852.958 473.525,-856.011 474.736,-849.394 469.566,-859.065 469.566,-859.065"/>
<text text-anchor="middle" x="421.796" y="-1128.3" font-family="Times,serif" font-size="14.00">notify_users</text>
</g>
<!-- Blog -->
<g id="node4" class="node"><title>Blog</title>
<path fill="none" stroke="black" d="M963.635,-1499.5C963.635,-1499.5 1082.74,-1499.5 1082.74,-1499.5 1088.74,-1499.5 1094.74,-1505.5 1094.74,-1511.5 1094.74,-1511.5 1094.74,-1559.5 1094.74,-1559.5 1094.74,-1565.5 1088.74,-1571.5 1082.74,-1571.5 1082.74,-1571.5 963.635,-1571.5 963.635,-1571.5 957.635,-1571.5 951.635,-1565.5 951.635,-1559.5 951.635,-1559.5 951.635,-1511.5 951.635,-1511.5 951.635,-1505.5 957.635,-1499.5 963.635,-1499.5"/>
<text text-anchor="middle" x="1023.19" y="-1556.3" font-family="Times,serif" font-size="14.00">Blog</text>
<polyline fill="none" stroke="black" points="951.635,-1549.5 1094.74,-1549.5 "/>
<text text-anchor="start" x="959.635" y="-1534.3" font-family="Times,serif" font-size="14.00">id :INTEGER</text>
<text text-anchor="start" x="959.635" y="-1520.3" font-family="Times,serif" font-size="14.00">settings :text</text>
<text text-anchor="start" x="959.635" y="-1506.3" font-family="Times,serif" font-size="14.00">base_url :varchar(255)</text>
</g>
<!-- BlogSweeper -->
<g id="node5" class="node"><title>BlogSweeper</title>
<polygon fill="none" stroke="black" points="1112.47,-1513.5 1112.47,-1557.5 1203.9,-1557.5 1203.9,-1513.5 1112.47,-1513.5"/>
<text text-anchor="middle" x="1158.19" y="-1542.3" font-family="Times,serif" font-size="14.00">BlogSweeper</text>
<polyline fill="none" stroke="black" points="1112.47,-1535.5 1203.9,-1535.5 "/>
<text text-anchor="middle" x="1158.19" y="-1520.3" font-family="Times,serif" font-size="14.00"> </text>
</g>
<!-- Category&#45;&gt;Categorization -->
<g id="edge18" class="edge"><title>Category&#45;&gt;Categorization</title>
<path fill="none" stroke="#8abe0a" d="M135.093,-1060.31C120.17,-994.305 98.3195,-897.656 84.9652,-838.589"/>
<ellipse fill="none" stroke="#8abe0a" cx="136" cy="-1064.32" rx="4.00001" ry="4.00001"/>
<polygon fill="#8abe0a" stroke="#8abe0a" points="84.9411,-838.482 87.125,-827.736 83.8385,-833.605 82.7358,-828.728 82.7358,-828.728 82.7358,-828.728 83.8385,-833.605 78.3466,-829.721 84.9411,-838.482 84.9411,-838.482"/>
</g>
<!-- Category&#45;&gt;Category -->
<g id="edge17" class="edge"><title>Category&#45;&gt;Category</title>
<path fill="none" stroke="#0381d7" d="M234.545,-1161.16C241.253,-1154.91 245.408,-1145.36 245.408,-1132.5 245.408,-1120.43 241.746,-1111.27 235.748,-1105.03"/>
<ellipse fill="none" stroke="#0381d7" cx="230.986" cy="-1163.66" rx="4.00002" ry="4.00002"/>
<polygon fill="#0381d7" stroke="#0381d7" points="235.731,-1105.01 230.403,-1095.43 231.723,-1102.03 227.714,-1099.04 227.714,-1099.04 227.714,-1099.04 231.723,-1102.03 225.024,-1102.65 235.731,-1105.01 235.731,-1105.01"/>
<text text-anchor="middle" x="268.342" y="-1128.3" font-family="Times,serif" font-size="14.00">children</text>
</g>
<!-- Comment&#45;&gt;Notification -->
<g id="edge19" class="edge"><title>Comment&#45;&gt;Notification</title>
<path fill="none" stroke="#c35f3a" d="M463.831,-962.953C448.131,-931.044 436.444,-907.099 436.189,-906 402.785,-762.503 391.989,-383.547 436.189,-243 437.947,-237.409 440.29,-231.872 443.011,-226.49"/>
<ellipse fill="none" stroke="#c35f3a" cx="465.693" cy="-966.735" rx="4.00002" ry="4.00002"/>
<polygon fill="#c35f3a" stroke="#c35f3a" points="443.085,-226.357 451.853,-219.771 445.498,-221.978 447.912,-217.599 447.912,-217.599 447.912,-217.599 445.498,-221.978 443.971,-215.427 443.085,-226.357 443.085,-226.357"/>
</g>
<!-- Comment&#45;&gt;Redirect -->
<g id="edge22" class="edge"><title>Comment&#45;&gt;Redirect</title>
<path fill="none" stroke="#454095" d="M566.919,-961.053C573.87,-947.226 582.791,-934.547 594.189,-924 634.738,-886.475 678.218,-945.163 717.189,-906 819.136,-803.548 754.435,-396.165 808.189,-262 812.141,-252.136 817.344,-242.333 823.109,-232.992"/>
<polygon fill="#454095" stroke="#454095" points="566.84,-961.223 558.547,-968.398 564.734,-965.758 562.629,-970.293 562.629,-970.293 562.629,-970.293 564.734,-965.758 566.71,-972.188 566.84,-961.223 566.84,-961.223"/>
<polygon fill="#454095" stroke="#454095" points="823.127,-232.963 832.324,-226.99 825.834,-228.759 828.54,-224.555 828.54,-224.555 828.54,-224.555 825.834,-228.759 824.757,-222.119 823.127,-232.963 823.127,-232.963"/>
</g>
<!-- Comment&#45;&gt;Redirection -->
<g id="edge21" class="edge"><title>Comment&#45;&gt;Redirection</title>
<path fill="none" stroke="#329d31" d="M465.641,-963.508C463.845,-960.964 462.028,-958.46 460.189,-956 440.602,-929.805 420.448,-935.436 406.189,-906 277.328,-639.997 293.842,-532.346 354.189,-243 367.355,-179.871 361.143,-149.408 412.189,-110 472.047,-63.7879 689.1,-46.4611 803.498,-40.4366"/>
<ellipse fill="none" stroke="#329d31" cx="468.071" cy="-967.032" rx="4.00002" ry="4.00002"/>
<polygon fill="#329d31" stroke="#329d31" points="803.581,-40.4325 813.798,-44.4157 808.575,-40.177 813.568,-39.9216 813.568,-39.9216 813.568,-39.9216 808.575,-40.177 813.338,-35.4274 803.581,-40.4325 803.581,-40.4325"/>
</g>
<!-- Comment&#45;&gt;Trigger -->
<g id="edge23" class="edge"><title>Comment&#45;&gt;Trigger</title>
<path fill="none" stroke="#092c6d" d="M634.838,-989.488C647.382,-976.652 661.185,-965.092 676.189,-956 721.184,-928.734 756.053,-975.269 793.189,-938 836.49,-894.544 820.983,-724.909 834.189,-665 874.362,-482.744 847.292,-416.363 952.189,-262 961.619,-248.122 973.76,-235.374 986.684,-224.049"/>
<ellipse fill="none" stroke="#092c6d" cx="631.916" cy="-992.569" rx="4.00002" ry="4.00002"/>
<polygon fill="#092c6d" stroke="#092c6d" points="986.735,-224.006 997.276,-220.984 990.552,-220.777 994.37,-217.548 994.37,-217.548 994.37,-217.548 990.552,-220.777 991.464,-214.112 986.735,-224.006 986.735,-224.006"/>
</g>
<!-- Comment&#45;&gt;User -->
<g id="edge20" class="edge"><title>Comment&#45;&gt;User</title>
<path fill="none" stroke="#ddd727" d="M462.654,-996.027C456.492,-972.039 455.801,-947.29 464.975,-924 467.159,-918.455 469.683,-913.002 472.489,-907.656"/>
<polygon fill="#ddd727" stroke="#ddd727" points="462.728,-996.285 461.177,-1007.14 464.114,-1001.09 465.501,-1005.89 465.501,-1005.89 465.501,-1005.89 464.114,-1001.09 469.824,-1004.65 462.728,-996.285 462.728,-996.285"/>
<polygon fill="#ddd727" stroke="#ddd727" points="472.582,-907.488 481.392,-900.959 475.024,-903.125 477.465,-898.761 477.465,-898.761 477.465,-898.761 475.024,-903.125 473.538,-896.564 472.582,-907.488 472.582,-907.488"/>
<text text-anchor="middle" x="499.796" y="-926.8" font-family="Times,serif" font-size="14.00">notify_users</text>
</g>
<!-- ConfigManager -->
<g id="node9" class="node"><title>ConfigManager</title>
<polygon fill="none" stroke="black" stroke-dasharray="1,5" points="1326.06,-1553.5 1222.31,-1553.5 1222.31,-1517.5 1326.06,-1517.5 1326.06,-1553.5"/>
<text text-anchor="middle" x="1274.19" y="-1531.3" font-family="Times,serif" font-size="14.00">ConfigManager</text>
</g>
<!-- Content -->
<g id="node10" class="node"><title>Content</title>
<path fill="none" stroke="black" d="M528.511,-262.5C528.511,-262.5 667.866,-262.5 667.866,-262.5 673.866,-262.5 679.866,-268.5 679.866,-274.5 679.866,-274.5 679.866,-602.5 679.866,-602.5 679.866,-608.5 673.866,-614.5 667.866,-614.5 667.866,-614.5 528.511,-614.5 528.511,-614.5 522.511,-614.5 516.511,-608.5 516.511,-602.5 516.511,-602.5 516.511,-274.5 516.511,-274.5 516.511,-268.5 522.511,-262.5 528.511,-262.5"/>
<text text-anchor="middle" x="598.189" y="-599.3" font-family="Times,serif" font-size="14.00">Content</text>
<polyline fill="none" stroke="black" points="516.511,-592.5 679.866,-592.5 "/>
<text text-anchor="start" x="524.511" y="-577.3" font-family="Times,serif" font-size="14.00">id :INTEGER</text>
<text text-anchor="start" x="524.511" y="-563.3" font-family="Times,serif" font-size="14.00">type :varchar(255)</text>
<text text-anchor="start" x="524.511" y="-549.3" font-family="Times,serif" font-size="14.00">title :varchar(255)</text>
<text text-anchor="start" x="524.511" y="-535.3" font-family="Times,serif" font-size="14.00">author :varchar(255)</text>
<text text-anchor="start" x="524.511" y="-521.3" font-family="Times,serif" font-size="14.00">body :text</text>
<text text-anchor="start" x="524.511" y="-507.3" font-family="Times,serif" font-size="14.00">extended :text</text>
<text text-anchor="start" x="524.511" y="-493.3" font-family="Times,serif" font-size="14.00">excerpt :text</text>
<text text-anchor="start" x="524.511" y="-479.3" font-family="Times,serif" font-size="14.00">created_at :datetime</text>
<text text-anchor="start" x="524.511" y="-465.3" font-family="Times,serif" font-size="14.00">updated_at :datetime</text>
<text text-anchor="start" x="524.511" y="-451.3" font-family="Times,serif" font-size="14.00">user_id :integer</text>
<text text-anchor="start" x="524.511" y="-437.3" font-family="Times,serif" font-size="14.00">permalink :varchar(255)</text>
<text text-anchor="start" x="524.511" y="-423.3" font-family="Times,serif" font-size="14.00">guid :varchar(255)</text>
<text text-anchor="start" x="524.511" y="-409.3" font-family="Times,serif" font-size="14.00">text_filter_id :integer</text>
<text text-anchor="start" x="524.511" y="-395.3" font-family="Times,serif" font-size="14.00">whiteboard :text</text>
<text text-anchor="start" x="524.511" y="-381.3" font-family="Times,serif" font-size="14.00">name :varchar(255)</text>
<text text-anchor="start" x="524.511" y="-367.3" font-family="Times,serif" font-size="14.00">published :boolean</text>
<text text-anchor="start" x="524.511" y="-353.3" font-family="Times,serif" font-size="14.00">allow_pings :boolean</text>
<text text-anchor="start" x="524.511" y="-339.3" font-family="Times,serif" font-size="14.00">allow_comments :boolean</text>
<text text-anchor="start" x="524.511" y="-325.3" font-family="Times,serif" font-size="14.00">published_at :datetime</text>
<text text-anchor="start" x="524.511" y="-311.3" font-family="Times,serif" font-size="14.00">state :varchar(255)</text>
<text text-anchor="start" x="524.511" y="-297.3" font-family="Times,serif" font-size="14.00">parent_id :integer</text>
<text text-anchor="start" x="524.511" y="-283.3" font-family="Times,serif" font-size="14.00">settings :text</text>
<text text-anchor="start" x="524.511" y="-269.3" font-family="Times,serif" font-size="14.00">post_type :varchar(255)</text>
</g>
<!-- Content&#45;&gt;Notification -->
<g id="edge24" class="edge"><title>Content&#45;&gt;Notification</title>
<path fill="none" stroke="#1a4007" d="M523.466,-254.77C519.528,-245.138 515.744,-235.887 512.214,-227.253"/>
<ellipse fill="none" stroke="#1a4007" cx="524.993" cy="-258.503" rx="4.00002" ry="4.00002"/>
<polygon fill="#1a4007" stroke="#1a4007" points="512.125,-227.036 512.505,-216.077 510.233,-222.408 508.34,-217.78 508.34,-217.78 508.34,-217.78 510.233,-222.408 504.175,-219.483 512.125,-227.036 512.125,-227.036"/>
</g>
<!-- Content&#45;&gt;Redirect -->
<g id="edge27" class="edge"><title>Content&#45;&gt;Redirect</title>
<path fill="none" stroke="#7367ee" d="M686.877,-333.501C714.404,-303.208 745.578,-270.804 776.189,-243 780.734,-238.871 785.497,-234.737 790.372,-230.65"/>
<polygon fill="#7367ee" stroke="#7367ee" points="686.665,-333.735 676.621,-338.135 683.312,-337.444 679.959,-341.153 679.959,-341.153 679.959,-341.153 683.312,-337.444 683.297,-344.171 686.665,-333.735 686.665,-333.735"/>
<polygon fill="#7367ee" stroke="#7367ee" points="790.393,-230.633 800.972,-227.746 794.251,-227.453 798.11,-224.273 798.11,-224.273 798.11,-224.273 794.251,-227.453 795.248,-220.8 790.393,-230.633 790.393,-230.633"/>
</g>
<!-- Content&#45;&gt;Redirection -->
<g id="edge26" class="edge"><title>Content&#45;&gt;Redirection</title>
<path fill="none" stroke="#6534ac" d="M649.59,-254.337C673.026,-196.411 705.94,-135.866 751.189,-91 765.926,-76.3876 785.296,-65.484 804.334,-57.4714"/>
<ellipse fill="none" stroke="#6534ac" cx="647.97" cy="-258.406" rx="4.00001" ry="4.00001"/>
<polygon fill="#6534ac" stroke="#6534ac" points="804.342,-57.4683 815.297,-57.9469 808.987,-55.6175 813.631,-53.7666 813.631,-53.7666 813.631,-53.7666 808.987,-55.6175 811.966,-49.5863 804.342,-57.4683 804.342,-57.4683"/>
</g>
<!-- Content&#45;&gt;Trigger -->
<g id="edge28" class="edge"><title>Content&#45;&gt;Trigger</title>
<path fill="none" stroke="#54d1fb" d="M686.201,-348.431C721.53,-317.056 764.266,-284.13 808.189,-262 870.667,-230.522 895.568,-249.255 961.189,-225 964.231,-223.875 967.298,-222.689 970.376,-221.451"/>
<ellipse fill="none" stroke="#54d1fb" cx="683.124" cy="-351.188" rx="4.00002" ry="4.00002"/>
<polygon fill="#54d1fb" stroke="#54d1fb" points="970.4,-221.441 981.361,-221.75 975.015,-219.518 979.631,-217.596 979.631,-217.596 979.631,-217.596 975.015,-219.518 977.9,-213.442 970.4,-221.441 970.4,-221.441"/>
</g>
<!-- Content&#45;&gt;User -->
<g id="edge25" class="edge"><title>Content&#45;&gt;User</title>
<path fill="none" stroke="#1df2a6" d="M626.838,-624.873C626.558,-632.345 626.022,-639.742 625.189,-647 624.878,-649.703 624.535,-652.43 624.161,-655.175"/>
<polygon fill="#1df2a6" stroke="#1df2a6" points="626.843,-624.644 631.564,-614.746 626.954,-619.645 627.065,-614.646 627.065,-614.646 627.065,-614.646 626.954,-619.645 622.566,-614.546 626.843,-624.644 626.843,-624.644"/>
<polygon fill="#1df2a6" stroke="#1df2a6" points="624.146,-655.28 618.233,-664.515 623.415,-660.226 622.685,-665.172 622.685,-665.172 622.685,-665.172 623.415,-660.226 627.137,-665.83 624.146,-655.28 624.146,-655.28"/>
<text text-anchor="middle" x="661.796" y="-635.8" font-family="Times,serif" font-size="14.00">notify_users</text>
</g>
<!-- EmailNotifier -->
<g id="node11" class="node"><title>EmailNotifier</title>
<polygon fill="none" stroke="black" points="1343.7,-1513.5 1343.7,-1557.5 1436.68,-1557.5 1436.68,-1513.5 1343.7,-1513.5"/>
<text text-anchor="middle" x="1390.19" y="-1542.3" font-family="Times,serif" font-size="14.00">EmailNotifier</text>
<polyline fill="none" stroke="black" points="1343.7,-1535.5 1436.68,-1535.5 "/>
<text text-anchor="middle" x="1390.19" y="-1520.3" font-family="Times,serif" font-size="14.00"> </text>
</g>
<!-- Feedback::States -->
<g id="node12" class="node"><title>Feedback::States</title>
<polygon fill="none" stroke="black" stroke-dasharray="1,5" points="1565.55,-1553.5 1454.83,-1553.5 1454.83,-1517.5 1565.55,-1517.5 1565.55,-1553.5"/>
<text text-anchor="middle" x="1510.19" y="-1531.3" font-family="Times,serif" font-size="14.00">Feedback::States</text>
</g>
<!-- Feedback&#45;&gt;Notification -->
<g id="edge29" class="edge"><title>Feedback&#45;&gt;Notification</title>
<path fill="none" stroke="#495e03" d="M679.954,-993.34C667.184,-979.42 653.216,-966.554 638.189,-956 622.164,-944.745 480.908,-921.689 469.189,-906 455.981,-888.318 462.694,-424.966 475.189,-262 476.033,-250.99 477.333,-239.3 478.791,-228.049"/>
<ellipse fill="none" stroke="#495e03" cx="682.684" cy="-996.387" rx="4.00002" ry="4.00002"/>
<polygon fill="#495e03" stroke="#495e03" points="478.827,-227.782 484.625,-218.474 479.496,-222.827 480.165,-217.872 480.165,-217.872 480.165,-217.872 479.496,-222.827 475.706,-217.27 478.827,-227.782 478.827,-227.782"/>
</g>
<!-- Feedback&#45;&gt;Redirect -->
<g id="edge32" class="edge"><title>Feedback&#45;&gt;Redirect</title>
<path fill="none" stroke="#5515bb" d="M822.508,-960.477C827.057,-942.225 831.09,-923.821 834.189,-906 876.756,-661.213 878.375,-364.505 876.645,-234.688"/>
<polygon fill="#5515bb" stroke="#5515bb" points="822.475,-960.609 815.646,-969.189 821.241,-965.454 820.007,-970.3 820.007,-970.3 820.007,-970.3 821.241,-965.454 824.368,-971.41 822.475,-960.609 822.475,-960.609"/>
<polygon fill="#5515bb" stroke="#5515bb" points="876.643,-234.511 880.998,-224.447 876.571,-229.512 876.498,-224.512 876.498,-224.512 876.498,-224.512 876.571,-229.512 871.999,-224.577 876.643,-234.511 876.643,-234.511"/>
</g>
<!-- Feedback&#45;&gt;Redirection -->
<g id="edge31" class="edge"><title>Feedback&#45;&gt;Redirection</title>
<path fill="none" stroke="#5af0cc" d="M769.066,-961.87C772.471,-676.378 780.153,-128.899 789.189,-110 794.572,-98.7394 802.628,-88.5825 811.686,-79.68"/>
<ellipse fill="none" stroke="#5af0cc" cx="769.014" cy="-966.24" rx="4" ry="4"/>
<polygon fill="#5af0cc" stroke="#5af0cc" points="811.782,-79.5913 822.184,-76.1204 815.458,-76.2017 819.134,-72.8122 819.134,-72.8122 819.134,-72.8122 815.458,-76.2017 816.083,-69.504 811.782,-79.5913 811.782,-79.5913"/>
</g>
<!-- Feedback&#45;&gt;Trigger -->
<g id="edge33" class="edge"><title>Feedback&#45;&gt;Trigger</title>
<path fill="none" stroke="#b28b31" d="M841.681,-962.914C849.291,-943.85 856.625,-924.596 863.189,-906 950.628,-658.273 1027.49,-354.07 1058.1,-227.791"/>
<ellipse fill="none" stroke="#b28b31" cx="840.128" cy="-966.782" rx="4.00001" ry="4.00001"/>
<polygon fill="#b28b31" stroke="#b28b31" points="1058.13,-227.648 1064.85,-218.985 1059.3,-222.788 1060.48,-217.928 1060.48,-217.928 1060.48,-217.928 1059.3,-222.788 1056.11,-216.87 1058.13,-227.648 1058.13,-227.648"/>
</g>
<!-- Feedback&#45;&gt;User -->
<g id="edge30" class="edge"><title>Feedback&#45;&gt;User</title>
<path fill="none" stroke="#d485ee" d="M679.837,-963.4C677.031,-960.825 674.149,-958.354 671.189,-956 647.989,-937.553 625.935,-960.781 606.975,-938 601.267,-931.142 596.825,-923.455 593.415,-915.278"/>
<polygon fill="#d485ee" stroke="#d485ee" points="679.914,-963.475 683.947,-973.672 683.499,-966.96 687.084,-970.445 687.084,-970.445 687.084,-970.445 683.499,-966.96 690.221,-967.219 679.914,-963.475 679.914,-963.475"/>
<polygon fill="#d485ee" stroke="#d485ee" points="593.407,-915.254 594.22,-904.318 591.699,-910.555 589.991,-905.855 589.991,-905.855 589.991,-905.855 591.699,-910.555 585.762,-907.392 593.407,-915.254 593.407,-915.254"/>
<text text-anchor="middle" x="641.796" y="-926.8" font-family="Times,serif" font-size="14.00">notify_users</text>
</g>
<!-- NotificationMailer -->
<g id="node15" class="node"><title>NotificationMailer</title>
<polygon fill="none" stroke="black" points="1584.09,-1513.5 1584.09,-1557.5 1704.29,-1557.5 1704.29,-1513.5 1584.09,-1513.5"/>
<text text-anchor="middle" x="1644.19" y="-1542.3" font-family="Times,serif" font-size="14.00">NotificationMailer</text>
<polyline fill="none" stroke="black" points="1584.09,-1535.5 1704.29,-1535.5 "/>
<text text-anchor="middle" x="1644.19" y="-1520.3" font-family="Times,serif" font-size="14.00"> </text>
</g>
<!-- Page -->
<g id="node16" class="node"><title>Page</title>
<path fill="none" stroke="black" d="M917.511,-956.5C917.511,-956.5 1056.87,-956.5 1056.87,-956.5 1062.87,-956.5 1068.87,-962.5 1068.87,-968.5 1068.87,-968.5 1068.87,-1296.5 1068.87,-1296.5 1068.87,-1302.5 1062.87,-1308.5 1056.87,-1308.5 1056.87,-1308.5 917.511,-1308.5 917.511,-1308.5 911.511,-1308.5 905.511,-1302.5 905.511,-1296.5 905.511,-1296.5 905.511,-968.5 905.511,-968.5 905.511,-962.5 911.511,-956.5 917.511,-956.5"/>
<text text-anchor="middle" x="987.189" y="-1293.3" font-family="Times,serif" font-size="14.00">Page</text>
<polyline fill="none" stroke="black" points="905.511,-1286.5 1068.87,-1286.5 "/>
<text text-anchor="start" x="913.511" y="-1271.3" font-family="Times,serif" font-size="14.00">id :INTEGER</text>
<text text-anchor="start" x="913.511" y="-1257.3" font-family="Times,serif" font-size="14.00">type :varchar(255)</text>
<text text-anchor="start" x="913.511" y="-1243.3" font-family="Times,serif" font-size="14.00">title :varchar(255)</text>
<text text-anchor="start" x="913.511" y="-1229.3" font-family="Times,serif" font-size="14.00">author :varchar(255)</text>
<text text-anchor="start" x="913.511" y="-1215.3" font-family="Times,serif" font-size="14.00">body :text</text>
<text text-anchor="start" x="913.511" y="-1201.3" font-family="Times,serif" font-size="14.00">extended :text</text>
<text text-anchor="start" x="913.511" y="-1187.3" font-family="Times,serif" font-size="14.00">excerpt :text</text>
<text text-anchor="start" x="913.511" y="-1173.3" font-family="Times,serif" font-size="14.00">created_at :datetime</text>
<text text-anchor="start" x="913.511" y="-1159.3" font-family="Times,serif" font-size="14.00">updated_at :datetime</text>
<text text-anchor="start" x="913.511" y="-1145.3" font-family="Times,serif" font-size="14.00">user_id :integer</text>
<text text-anchor="start" x="913.511" y="-1131.3" font-family="Times,serif" font-size="14.00">permalink :varchar(255)</text>
<text text-anchor="start" x="913.511" y="-1117.3" font-family="Times,serif" font-size="14.00">guid :varchar(255)</text>
<text text-anchor="start" x="913.511" y="-1103.3" font-family="Times,serif" font-size="14.00">text_filter_id :integer</text>
<text text-anchor="start" x="913.511" y="-1089.3" font-family="Times,serif" font-size="14.00">whiteboard :text</text>
<text text-anchor="start" x="913.511" y="-1075.3" font-family="Times,serif" font-size="14.00">name :varchar(255)</text>
<text text-anchor="start" x="913.511" y="-1061.3" font-family="Times,serif" font-size="14.00">published :boolean</text>
<text text-anchor="start" x="913.511" y="-1047.3" font-family="Times,serif" font-size="14.00">allow_pings :boolean</text>
<text text-anchor="start" x="913.511" y="-1033.3" font-family="Times,serif" font-size="14.00">allow_comments :boolean</text>
<text text-anchor="start" x="913.511" y="-1019.3" font-family="Times,serif" font-size="14.00">published_at :datetime</text>
<text text-anchor="start" x="913.511" y="-1005.3" font-family="Times,serif" font-size="14.00">state :varchar(255)</text>
<text text-anchor="start" x="913.511" y="-991.3" font-family="Times,serif" font-size="14.00">parent_id :integer</text>
<text text-anchor="start" x="913.511" y="-977.3" font-family="Times,serif" font-size="14.00">settings :text</text>
<text text-anchor="start" x="913.511" y="-963.3" font-family="Times,serif" font-size="14.00">post_type :varchar(255)</text>
</g>
<!-- Page&#45;&gt;Notification -->
<g id="edge34" class="edge"><title>Page&#45;&gt;Notification</title>
<path fill="none" stroke="#353d62" d="M966.013,-948.296C964.223,-940.049 962.286,-931.917 960.189,-924 950.012,-885.585 716.623,-290.751 689.189,-262 655.542,-226.739 605.999,-203.484 564.52,-188.985"/>
<ellipse fill="none" stroke="#353d62" cx="966.86" cy="-952.322" rx="4.00001" ry="4.00001"/>
<polygon fill="#353d62" stroke="#353d62" points="564.456,-188.964 556.429,-181.493 559.72,-187.359 554.985,-185.755 554.985,-185.755 554.985,-185.755 559.72,-187.359 553.541,-190.017 564.456,-188.964 564.456,-188.964"/>
</g>
<!-- Page&#45;&gt;Redirect -->
<g id="edge37" class="edge"><title>Page&#45;&gt;Redirect</title>
<path fill="none" stroke="#56ae5f" d="M1010.57,-946.189C1010.62,-938.7 1010.5,-931.282 1010.19,-924 1005.84,-821.445 951.299,-266.883 950.189,-262 947.899,-251.928 943.678,-242.246 938.36,-233.183"/>
<polygon fill="#56ae5f" stroke="#56ae5f" points="1010.57,-946.439 1005.91,-956.368 1010.49,-951.438 1010.41,-956.437 1010.41,-956.437 1010.41,-956.437 1010.49,-951.438 1014.91,-956.507 1010.57,-946.439 1010.57,-946.439"/>
<polygon fill="#56ae5f" stroke="#56ae5f" points="938.323,-233.125 936.749,-222.273 935.638,-228.907 932.953,-224.69 932.953,-224.69 932.953,-224.69 935.638,-228.907 929.157,-227.106 938.323,-233.125 938.323,-233.125"/>
</g>
<!-- Page&#45;&gt;Redirection -->
<g id="edge36" class="edge"><title>Page&#45;&gt;Redirection</title>
<path fill="none" stroke="#0a5bd4" d="M1072.51,-955.715C1132.52,-829.114 1202.19,-674.872 1202.19,-641 1202.19,-641 1202.19,-641 1202.19,-166.5 1202.19,-140.007 1202.77,-127.84 1183.19,-110 1149.01,-78.871 1026.65,-57.3368 946.828,-46.2359"/>
<ellipse fill="none" stroke="#0a5bd4" cx="1070.65" cy="-959.633" rx="4.00002" ry="4.00002"/>
<polygon fill="#0a5bd4" stroke="#0a5bd4" points="946.737,-46.2236 937.439,-40.4104 941.783,-45.5463 936.83,-44.8689 936.83,-44.8689 936.83,-44.8689 941.783,-45.5463 936.22,-49.3274 946.737,-46.2236 946.737,-46.2236"/>
</g>
<!-- Page&#45;&gt;Trigger -->
<g id="edge38" class="edge"><title>Page&#45;&gt;Trigger</title>
<path fill="none" stroke="#53a6d3" d="M1036.48,-948.355C1037.08,-944.881 1037.65,-941.427 1038.19,-938 1079.08,-675.892 1077.01,-357.929 1074.01,-228.069"/>
<ellipse fill="none" stroke="#53a6d3" cx="1035.73" cy="-952.557" rx="4.00001" ry="4.00001"/>
<polygon fill="#53a6d3" stroke="#53a6d3" points="1074.01,-227.935 1078.27,-217.829 1073.89,-222.936 1073.77,-217.938 1073.77,-217.938 1073.77,-217.938 1073.89,-222.936 1069.27,-218.047 1074.01,-227.935 1074.01,-227.935"/>
</g>
<!-- Page&#45;&gt;User -->
<g id="edge35" class="edge"><title>Page&#45;&gt;User</title>
<path fill="none" stroke="#2996d7" d="M898.505,-991.961C886.123,-978.592 872.641,-966.231 858.189,-956 835.738,-940.107 823.562,-950.331 798.975,-938 771.153,-924.047 743.125,-906.363 717.093,-888.042"/>
<polygon fill="#2996d7" stroke="#2996d7" points="898.584,-992.048 901.924,-1002.49 901.927,-995.766 905.27,-999.484 905.27,-999.484 905.27,-999.484 901.927,-995.766 908.617,-996.475 898.584,-992.048 898.584,-992.048"/>
<polygon fill="#2996d7" stroke="#2996d7" points="716.86,-887.875 711.324,-878.409 712.787,-884.975 708.714,-882.075 708.714,-882.075 708.714,-882.075 712.787,-884.975 706.104,-885.74 716.86,-887.875 716.86,-887.875"/>
<text text-anchor="middle" x="833.796" y="-926.8" font-family="Times,serif" font-size="14.00">notify_users</text>
</g>
<!-- PageCache -->
<g id="node17" class="node"><title>PageCache</title>
<polygon fill="none" stroke="black" points="1722.09,-1513.5 1722.09,-1557.5 1800.29,-1557.5 1800.29,-1513.5 1722.09,-1513.5"/>
<text text-anchor="middle" x="1761.19" y="-1542.3" font-family="Times,serif" font-size="14.00">PageCache</text>
<polyline fill="none" stroke="black" points="1722.09,-1535.5 1800.29,-1535.5 "/>
<text text-anchor="middle" x="1761.19" y="-1520.3" font-family="Times,serif" font-size="14.00"> </text>
</g>
<!-- PostType -->
<g id="node19" class="node"><title>PostType</title>
<path fill="none" stroke="black" d="M1830.25,-1492.5C1830.25,-1492.5 1964.13,-1492.5 1964.13,-1492.5 1970.13,-1492.5 1976.13,-1498.5 1976.13,-1504.5 1976.13,-1504.5 1976.13,-1566.5 1976.13,-1566.5 1976.13,-1572.5 1970.13,-1578.5 1964.13,-1578.5 1964.13,-1578.5 1830.25,-1578.5 1830.25,-1578.5 1824.25,-1578.5 1818.25,-1572.5 1818.25,-1566.5 1818.25,-1566.5 1818.25,-1504.5 1818.25,-1504.5 1818.25,-1498.5 1824.25,-1492.5 1830.25,-1492.5"/>
<text text-anchor="middle" x="1897.19" y="-1563.3" font-family="Times,serif" font-size="14.00">PostType</text>
<polyline fill="none" stroke="black" points="1818.25,-1556.5 1976.13,-1556.5 "/>
<text text-anchor="start" x="1826.25" y="-1541.3" font-family="Times,serif" font-size="14.00">id :INTEGER</text>
<text text-anchor="start" x="1826.25" y="-1527.3" font-family="Times,serif" font-size="14.00">name :varchar(255)</text>
<text text-anchor="start" x="1826.25" y="-1513.3" font-family="Times,serif" font-size="14.00">permalink :varchar(255)</text>
<text text-anchor="start" x="1826.25" y="-1499.3" font-family="Times,serif" font-size="14.00">description :varchar(255)</text>
</g>
<!-- Profile -->
<g id="node20" class="node"><title>Profile</title>
<path fill="none" stroke="black" d="M2010.53,-1089.5C2010.53,-1089.5 2135.85,-1089.5 2135.85,-1089.5 2141.85,-1089.5 2147.85,-1095.5 2147.85,-1101.5 2147.85,-1101.5 2147.85,-1163.5 2147.85,-1163.5 2147.85,-1169.5 2141.85,-1175.5 2135.85,-1175.5 2135.85,-1175.5 2010.53,-1175.5 2010.53,-1175.5 2004.53,-1175.5 1998.53,-1169.5 1998.53,-1163.5 1998.53,-1163.5 1998.53,-1101.5 1998.53,-1101.5 1998.53,-1095.5 2004.53,-1089.5 2010.53,-1089.5"/>
<text text-anchor="middle" x="2073.19" y="-1160.3" font-family="Times,serif" font-size="14.00">Profile</text>
<polyline fill="none" stroke="black" points="1998.53,-1153.5 2147.85,-1153.5 "/>
<text text-anchor="start" x="2006.53" y="-1138.3" font-family="Times,serif" font-size="14.00">id :INTEGER</text>
<text text-anchor="start" x="2006.53" y="-1124.3" font-family="Times,serif" font-size="14.00">label :varchar(255)</text>
<text text-anchor="start" x="2006.53" y="-1110.3" font-family="Times,serif" font-size="14.00">nicename :varchar(255)</text>
<text text-anchor="start" x="2006.53" y="-1096.3" font-family="Times,serif" font-size="14.00">modules :text</text>
</g>
<!-- Redirect&#45;&gt;Redirection -->
<g id="edge39" class="edge"><title>Redirect&#45;&gt;Redirection</title>
<path fill="none" stroke="#9a1370" d="M875.189,-102.177C875.189,-95.6765 875.189,-89.1738 875.189,-82.9327"/>
<ellipse fill="none" stroke="#9a1370" cx="875.189" cy="-106.294" rx="4" ry="4"/>
<polygon fill="#9a1370" stroke="#9a1370" points="875.189,-82.7232 879.689,-72.7231 875.189,-77.7232 875.189,-72.7232 875.189,-72.7232 875.189,-72.7232 875.189,-77.7232 870.689,-72.7232 875.189,-82.7232 875.189,-82.7232"/>
</g>
<!-- Right -->
<g id="node24" class="node"><title>Right</title>
<path fill="none" stroke="black" d="M2006.25,-1499.5C2006.25,-1499.5 2140.13,-1499.5 2140.13,-1499.5 2146.13,-1499.5 2152.13,-1505.5 2152.13,-1511.5 2152.13,-1511.5 2152.13,-1559.5 2152.13,-1559.5 2152.13,-1565.5 2146.13,-1571.5 2140.13,-1571.5 2140.13,-1571.5 2006.25,-1571.5 2006.25,-1571.5 2000.25,-1571.5 1994.25,-1565.5 1994.25,-1559.5 1994.25,-1559.5 1994.25,-1511.5 1994.25,-1511.5 1994.25,-1505.5 2000.25,-1499.5 2006.25,-1499.5"/>
<text text-anchor="middle" x="2073.19" y="-1556.3" font-family="Times,serif" font-size="14.00">Right</text>
<polyline fill="none" stroke="black" points="1994.25,-1549.5 2152.13,-1549.5 "/>
<text text-anchor="start" x="2002.25" y="-1534.3" font-family="Times,serif" font-size="14.00">id :INTEGER</text>
<text text-anchor="start" x="2002.25" y="-1520.3" font-family="Times,serif" font-size="14.00">name :varchar(255)</text>
<text text-anchor="start" x="2002.25" y="-1506.3" font-family="Times,serif" font-size="14.00">description :varchar(255)</text>
</g>
<!-- Right&#45;&gt;Profile -->
<g id="edge40" class="edge"><title>Right&#45;&gt;Profile</title>
<path fill="none" stroke="#2d2411" d="M2073.19,-1489.24C2073.19,-1414.38 2073.19,-1265.2 2073.19,-1185.89"/>
<polygon fill="#2d2411" stroke="#2d2411" points="2073.19,-1489.27 2068.69,-1499.27 2073.19,-1494.27 2073.19,-1499.27 2073.19,-1499.27 2073.19,-1499.27 2073.19,-1494.27 2077.69,-1499.27 2073.19,-1489.27 2073.19,-1489.27"/>
<polygon fill="#2d2411" stroke="#2d2411" points="2073.19,-1185.65 2077.69,-1175.65 2073.19,-1180.65 2073.19,-1175.65 2073.19,-1175.65 2073.19,-1175.65 2073.19,-1180.65 2068.69,-1175.65 2073.19,-1185.65 2073.19,-1185.65"/>
</g>
<!-- Sidebar -->
<g id="node25" class="node"><title>Sidebar</title>
<path fill="none" stroke="black" d="M2182.12,-1485.5C2182.12,-1485.5 2308.26,-1485.5 2308.26,-1485.5 2314.26,-1485.5 2320.26,-1491.5 2320.26,-1497.5 2320.26,-1497.5 2320.26,-1573.5 2320.26,-1573.5 2320.26,-1579.5 2314.26,-1585.5 2308.26,-1585.5 2308.26,-1585.5 2182.12,-1585.5 2182.12,-1585.5 2176.12,-1585.5 2170.12,-1579.5 2170.12,-1573.5 2170.12,-1573.5 2170.12,-1497.5 2170.12,-1497.5 2170.12,-1491.5 2176.12,-1485.5 2182.12,-1485.5"/>
<text text-anchor="middle" x="2245.19" y="-1570.3" font-family="Times,serif" font-size="14.00">Sidebar</text>
<polyline fill="none" stroke="black" points="2170.12,-1563.5 2320.26,-1563.5 "/>
<text text-anchor="start" x="2178.12" y="-1548.3" font-family="Times,serif" font-size="14.00">id :INTEGER</text>
<text text-anchor="start" x="2178.12" y="-1534.3" font-family="Times,serif" font-size="14.00">active_position :integer</text>
<text text-anchor="start" x="2178.12" y="-1520.3" font-family="Times,serif" font-size="14.00">config :text</text>
<text text-anchor="start" x="2178.12" y="-1506.3" font-family="Times,serif" font-size="14.00">staged_position :integer</text>
<text text-anchor="start" x="2178.12" y="-1492.3" font-family="Times,serif" font-size="14.00">type :varchar(255)</text>
</g>
<!-- TextFilter -->
<g id="node27" class="node"><title>TextFilter</title>
<path fill="none" stroke="black" d="M2350.25,-1478.5C2350.25,-1478.5 2484.13,-1478.5 2484.13,-1478.5 2490.13,-1478.5 2496.13,-1484.5 2496.13,-1490.5 2496.13,-1490.5 2496.13,-1580.5 2496.13,-1580.5 2496.13,-1586.5 2490.13,-1592.5 2484.13,-1592.5 2484.13,-1592.5 2350.25,-1592.5 2350.25,-1592.5 2344.25,-1592.5 2338.25,-1586.5 2338.25,-1580.5 2338.25,-1580.5 2338.25,-1490.5 2338.25,-1490.5 2338.25,-1484.5 2344.25,-1478.5 2350.25,-1478.5"/>
<text text-anchor="middle" x="2417.19" y="-1577.3" font-family="Times,serif" font-size="14.00">TextFilter</text>
<polyline fill="none" stroke="black" points="2338.25,-1570.5 2496.13,-1570.5 "/>
<text text-anchor="start" x="2346.25" y="-1555.3" font-family="Times,serif" font-size="14.00">id :INTEGER</text>
<text text-anchor="start" x="2346.25" y="-1541.3" font-family="Times,serif" font-size="14.00">name :varchar(255)</text>
<text text-anchor="start" x="2346.25" y="-1527.3" font-family="Times,serif" font-size="14.00">description :varchar(255)</text>
<text text-anchor="start" x="2346.25" y="-1513.3" font-family="Times,serif" font-size="14.00">markup :varchar(255)</text>
<text text-anchor="start" x="2346.25" y="-1499.3" font-family="Times,serif" font-size="14.00">filters :text</text>
<text text-anchor="start" x="2346.25" y="-1485.3" font-family="Times,serif" font-size="14.00">params :text</text>
</g>
<!-- Theme -->
<g id="node28" class="node"><title>Theme</title>
<polygon fill="none" stroke="black" points="2513.75,-1513.5 2513.75,-1557.5 2568.62,-1557.5 2568.62,-1513.5 2513.75,-1513.5"/>
<text text-anchor="middle" x="2541.19" y="-1542.3" font-family="Times,serif" font-size="14.00">Theme</text>
<polyline fill="none" stroke="black" points="2513.75,-1535.5 2568.62,-1535.5 "/>
<text text-anchor="middle" x="2541.19" y="-1520.3" font-family="Times,serif" font-size="14.00"> </text>
</g>
<!-- Trackback&#45;&gt;Notification -->
<g id="edge41" class="edge"><title>Trackback&#45;&gt;Notification</title>
<path fill="none" stroke="#24cece" d="M1101.21,-962.374C1005.43,-723.81 834.784,-311.804 779.189,-262 719.536,-208.562 629.076,-185.635 564.868,-175.817"/>
<ellipse fill="none" stroke="#24cece" cx="1102.81" cy="-966.371" rx="4.00001" ry="4.00001"/>
<polygon fill="#24cece" stroke="#24cece" points="564.693,-175.791 555.445,-169.898 559.745,-175.071 554.797,-174.351 554.797,-174.351 554.797,-174.351 559.745,-175.071 554.149,-178.804 564.693,-175.791 564.693,-175.791"/>
</g>
<!-- Trackback&#45;&gt;Redirect -->
<g id="edge44" class="edge"><title>Trackback&#45;&gt;Redirect</title>
<path fill="none" stroke="#865989" d="M1144.64,-960.17C1112.4,-741.73 1050.64,-378.385 982.189,-262 975.922,-251.346 968.009,-241.28 959.335,-231.981"/>
<polygon fill="#865989" stroke="#865989" points="1144.65,-960.244 1141.65,-970.792 1145.38,-965.191 1146.11,-970.138 1146.11,-970.138 1146.11,-970.138 1145.38,-965.191 1150.56,-969.483 1144.65,-960.244 1144.65,-960.244"/>
<polygon fill="#865989" stroke="#865989" points="959.211,-231.853 955.455,-221.551 955.722,-228.272 952.232,-224.691 952.232,-224.691 952.232,-224.691 955.722,-228.272 949.009,-227.831 959.211,-231.853 959.211,-231.853"/>
</g>
<!-- Trackback&#45;&gt;Redirection -->
<g id="edge43" class="edge"><title>Trackback&#45;&gt;Redirection</title>
<path fill="none" stroke="#ae46c7" d="M1217.96,-962.034C1230.36,-906.594 1240.19,-844.381 1240.19,-786.5 1240.19,-786.5 1240.19,-786.5 1240.19,-166.5 1240.19,-139.217 1235.91,-128.852 1216.19,-110 1178.22,-73.7064 1035,-53.3005 946.688,-43.9217"/>
<ellipse fill="none" stroke="#ae46c7" cx="1217" cy="-966.262" rx="4.00001" ry="4.00001"/>
<polygon fill="#ae46c7" stroke="#ae46c7" points="946.679,-43.9208 937.198,-38.4104 941.705,-43.4035 936.732,-42.8862 936.732,-42.8862 936.732,-42.8862 941.705,-43.4035 936.267,-47.3621 946.679,-43.9208 946.679,-43.9208"/>
</g>
<!-- Trackback&#45;&gt;Trigger -->
<g id="edge45" class="edge"><title>Trackback&#45;&gt;Trigger</title>
<path fill="none" stroke="#7cd5ec" d="M1161.56,-962.142C1152.57,-782.552 1132.37,-491.116 1089.19,-243 1088.32,-237.982 1087.32,-232.794 1086.26,-227.599"/>
<ellipse fill="none" stroke="#7cd5ec" cx="1161.77" cy="-966.348" rx="4" ry="4"/>
<polygon fill="#7cd5ec" stroke="#7cd5ec" points="1086.23,-227.429 1088.57,-216.716 1085.2,-222.537 1084.16,-217.645 1084.16,-217.645 1084.16,-217.645 1085.2,-222.537 1079.76,-218.574 1086.23,-227.429 1086.23,-227.429"/>
</g>
<!-- Trackback&#45;&gt;User -->
<g id="edge42" class="edge"><title>Trackback&#45;&gt;User</title>
<path fill="none" stroke="#fd8982" d="M1087.63,-963.542C1084.59,-960.888 1081.44,-958.368 1078.19,-956 1037.69,-926.553 1015.2,-951.489 966.975,-938 881.95,-914.215 790.004,-877.108 718.58,-845.571"/>
<polygon fill="#fd8982" stroke="#fd8982" points="1087.67,-963.576 1091.9,-973.692 1091.32,-966.99 1094.97,-970.404 1094.97,-970.404 1094.97,-970.404 1091.32,-966.99 1098.05,-967.117 1087.67,-963.576 1087.67,-963.576"/>
<polygon fill="#fd8982" stroke="#fd8982" points="718.227,-845.414 710.911,-837.245 713.657,-843.387 709.086,-841.359 709.086,-841.359 709.086,-841.359 713.657,-843.387 707.261,-845.472 718.227,-845.414 718.227,-845.414"/>
<text text-anchor="middle" x="1001.8" y="-926.8" font-family="Times,serif" font-size="14.00">notify_users</text>
</g>
<!-- User&#45;&gt;Article -->
<g id="edge48" class="edge"><title>User&#45;&gt;Article</title>
<path fill="none" stroke="#d3eafe" d="M582.654,-913.375C585.309,-922.094 589.061,-930.416 594.189,-938 606.023,-955.503 625.488,-939.114 638.189,-956 733.037,-1082.11 602.974,-1169.22 676.189,-1309 686.276,-1328.26 694.495,-1329.9 713.189,-1341 732.778,-1352.63 744.144,-1343.88 761.189,-1359 761.766,-1359.51 762.341,-1360.03 762.912,-1360.55"/>
<ellipse fill="none" stroke="#d3eafe" cx="581.621" cy="-909.485" rx="4.00001" ry="4.00001"/>
<polygon fill="#d3eafe" stroke="#d3eafe" points="762.98,-1360.62 767.038,-1370.8 766.573,-1364.09 770.167,-1367.57 770.167,-1367.57 770.167,-1367.57 766.573,-1364.09 773.296,-1364.33 762.98,-1360.62 762.98,-1360.62"/>
</g>
<!-- User&#45;&gt;Content -->
<g id="edge47" class="edge"><title>User&#45;&gt;Content</title>
<path fill="none" stroke="#60c222" d="M536.04,-655.624C535.333,-652.74 534.681,-649.863 534.092,-647 532.59,-639.701 531.702,-632.291 531.342,-624.833"/>
<polygon fill="#60c222" stroke="#60c222" points="536.082,-655.783 534.301,-666.603 537.366,-660.616 538.65,-665.448 538.65,-665.448 538.65,-665.448 537.366,-660.616 542.999,-664.293 536.082,-655.783 536.082,-655.783"/>
<polygon fill="#60c222" stroke="#60c222" points="531.338,-624.636 535.67,-614.561 531.254,-619.636 531.17,-614.637 531.17,-614.637 531.17,-614.637 531.254,-619.636 526.671,-614.713 531.338,-624.636 531.338,-624.636"/>
<text text-anchor="middle" x="577.737" y="-635.8" font-family="Times,serif" font-size="14.00">notify_contents</text>
</g>
<!-- User&#45;&gt;Notification -->
<g id="edge46" class="edge"><title>User&#45;&gt;Notification</title>
<path fill="none" stroke="#36760b" d="M521.617,-657.48C515.886,-643.463 510.89,-629.141 507.189,-615 471.881,-480.124 476.779,-314.6 482.836,-227.909"/>
<ellipse fill="none" stroke="#36760b" cx="523.324" cy="-661.545" rx="4.00001" ry="4.00001"/>
<polygon fill="#36760b" stroke="#36760b" points="482.851,-227.709 488.066,-218.062 483.214,-222.722 483.578,-217.735 483.578,-217.735 483.578,-217.735 483.214,-222.722 479.09,-217.408 482.851,-227.709 482.851,-227.709"/>
</g>
<!-- WebNotifier -->
<g id="node32" class="node"><title>WebNotifier</title>
<polygon fill="none" stroke="black" points="2586.76,-1513.5 2586.76,-1557.5 2671.62,-1557.5 2671.62,-1513.5 2586.76,-1513.5"/>
<text text-anchor="middle" x="2629.19" y="-1542.3" font-family="Times,serif" font-size="14.00">WebNotifier</text>
<polyline fill="none" stroke="black" points="2586.76,-1535.5 2671.62,-1535.5 "/>
<text text-anchor="middle" x="2629.19" y="-1520.3" font-family="Times,serif" font-size="14.00"> </text>
</g>
</g>
</svg>
